<svg id="Layer_2" data-name="Layer 2" xmlns="http://www.w3.org/2000/svg" viewBox="0 0 1024 1021"><defs><style>.cls-1{fill:#f0f3f7;}.cls-2{fill:#d5dce5;}.cls-3{fill:#fff;}.cls-4{fill:#363c44;}.cls-5{fill:#ed0080;}.cls-6{fill:#969daa;}.cls-7{fill:#0c1724;}</style></defs><g id="Layer_1" data-name="Layer 1"><rect class="cls-1" x="1.5" y="-1.5" width="1021" height="1024" transform="translate(1022.5 -1.5) rotate(90)"/><rect class="cls-2" x="401.44" y="656.15" width="35.51" height="3.19" transform="translate(-350.88 533.92) rotate(-48.35)"/><path class="cls-2" d="M391,690.1l6.57-17.22,5.84-15.3c.33-.85,1.34-1.38,1.83-1l8.67,7.72,8.68,7.72c.48.43.07,1.5-.74,1.92l-14.51,7.58Z"/><rect class="cls-2" x="604.55" y="638.35" width="3.19" height="35.51" transform="translate(-276 515.72) rotate(-38.22)"/><path class="cls-2" d="M633,689.59l-15.8-9.49-14-8.44c-.79-.47-1.13-1.56-.62-2l9.12-7.19,9.13-7.18c.5-.4,1.48.18,1.76,1.06L627.51,672Z"/><rect class="cls-2" x="643.67" y="470.48" width="35.51" height="3.19" transform="translate(-115.96 235.42) rotate(-18.58)"/><path class="cls-2" d="M702,458l-14.25,11.69-12.67,10.38c-.71.58-1.85.54-2.05-.07l-3.7-11-3.71-11c-.2-.61.68-1.34,1.6-1.3l16.36.62Z"/><rect class="cls-2" x="493.81" y="372.25" width="35.51" height="3.19" transform="translate(129.77 879.5) rotate(-89.1)"/><path class="cls-2" d="M511.82,330.9l6.27,17.33,5.56,15.4c.31.86-.11,1.92-.76,1.91l-11.61-.18-11.61-.18c-.65,0-1-1.08-.7-1.93L505,348Z"/><rect class="cls-2" x="360.08" y="455.36" width="3.19" height="35.51" transform="translate(-215.3 620.57) rotate(-66.94)"/><path class="cls-2" d="M322,456.67l18.42.73,16.36.66c.92,0,1.74.83,1.49,1.42l-4.55,10.69-4.55,10.68c-.25.6-1.4.55-2.06-.08L335.3,469.43Z"/><circle class="cls-3" cx="512" cy="201.06" r="125"/><path class="cls-4" d="M430,257.1V237.78h4.42l5.71,13.49,5.71-13.49h4.34V257.1h-4V244.72l-4.71,11.12h-2.83l-4.7-11.12V257.1Z"/><path class="cls-4" d="M463,257.1l-.25-1.57a4.23,4.23,0,0,1-1.64,1.31,6.09,6.09,0,0,1-2.73.54,5.41,5.41,0,0,1-3.65-1.15,3.92,3.92,0,0,1-1.33-3.14,4.1,4.1,0,0,1,.67-2.48,4,4,0,0,1,1.78-1.35,9.56,9.56,0,0,1,2.45-.62l2.91-.39a2.26,2.26,0,0,0,1-.31.76.76,0,0,0,.24-.62,2,2,0,0,0-.53-1.33,2.37,2.37,0,0,0-1.85-.6,3.08,3.08,0,0,0-1.75.48,1.88,1.88,0,0,0-.82,1.43h-3.64a4.48,4.48,0,0,1,.77-2.48,5.12,5.12,0,0,1,2.17-1.82,7.92,7.92,0,0,1,3.47-.69,6.05,6.05,0,0,1,4.49,1.56,5.81,5.81,0,0,1,1.56,4.32v8.91Zm-.53-4.9v-1.49l-3.19.42a3.37,3.37,0,0,0-1.51.53,1.32,1.32,0,0,0-.54,1.12,1.37,1.37,0,0,0,.61,1.21,2.79,2.79,0,0,0,1.63.42,4.15,4.15,0,0,0,2.08-.53A1.82,1.82,0,0,0,462.45,252.2Z"/><path class="cls-4" d="M469.75,262.42V242.59h3.38l.31,1.85a4.42,4.42,0,0,1,1.79-1.57,6,6,0,0,1,2.61-.56,5.57,5.57,0,0,1,3.32,1,6.28,6.28,0,0,1,2.07,2.66,10.71,10.71,0,0,1,0,7.72,6.24,6.24,0,0,1-2.11,2.71,5.75,5.75,0,0,1-3.43,1,4.79,4.79,0,0,1-4-1.77v6.81Zm3.92-14v2.86a2.25,2.25,0,0,0,.93,2,3.67,3.67,0,0,0,2.09.63,2.81,2.81,0,0,0,2.42-1.12,5,5,0,0,0,.83-3,5,5,0,0,0-.81-3,2.8,2.8,0,0,0-2.41-1.13,3.84,3.84,0,0,0-1.46.29,2.82,2.82,0,0,0-1.15.9A2.59,2.59,0,0,0,473.67,248.47Z"/><path class="cls-4" d="M502.81,257.1l-.3-1.85a4.38,4.38,0,0,1-1.8,1.57,5.88,5.88,0,0,1-2.6.56,5.55,5.55,0,0,1-3.32-1,6.28,6.28,0,0,1-2.07-2.68,9.85,9.85,0,0,1-.71-3.82,10,10,0,0,1,.72-3.88,6.2,6.2,0,0,1,2.12-2.71,5.68,5.68,0,0,1,3.43-1,4.8,4.8,0,0,1,4,1.77v-7h3.92v20Zm-.53-5.88v-2.86a2.23,2.23,0,0,0-.94-2,3.64,3.64,0,0,0-2.08-.63,2.8,2.8,0,0,0-2.42,1.12,4.91,4.91,0,0,0-.83,3,5,5,0,0,0,.81,3,2.79,2.79,0,0,0,2.41,1.13,3.88,3.88,0,0,0,1.46-.29,2.68,2.68,0,0,0,1.14-.91A2.55,2.55,0,0,0,502.28,251.22Z"/><path class="cls-4" d="M523,252.7a4.89,4.89,0,0,1-1,2.28,5.75,5.75,0,0,1-2.24,1.74,8.23,8.23,0,0,1-3.47.66,7.69,7.69,0,0,1-4-.94,5.84,5.84,0,0,1-2.37-2.62,9.08,9.08,0,0,1-.78-3.86,9.23,9.23,0,0,1,.81-4,6.24,6.24,0,0,1,2.41-2.7,7.38,7.38,0,0,1,3.92-1,7,7,0,0,1,3.75.94,5.9,5.9,0,0,1,2.27,2.55,8.54,8.54,0,0,1,.75,3.65c0,.24,0,.51,0,.79a5.86,5.86,0,0,1-.09.72h-9.8a4.52,4.52,0,0,0,1,2.47,2.78,2.78,0,0,0,2.25.89,3.51,3.51,0,0,0,1.79-.42,2.17,2.17,0,0,0,1-1.2Zm-6.55-7.48q-2.61,0-3.16,3h5.15a.87.87,0,0,0,.57-.14.64.64,0,0,0,.16-.48,2.4,2.4,0,0,0-.7-1.65A2.64,2.64,0,0,0,516.41,245.22Z"/><path class="cls-4" d="M527.26,257.1V245.7h-2.35v-3.11h2.35V242a5.21,5.21,0,0,1,1.35-3.86,5.15,5.15,0,0,1,3.83-1.34,14.27,14.27,0,0,1,1.46.07,11.79,11.79,0,0,1,1.2.15v2.91h-1.43a2,2,0,0,0-2.49,2.35v.31h3.36v3.11h-3.36v11.4Z"/><path class="cls-4" d="M549.62,252.7a4.89,4.89,0,0,1-1,2.28,5.75,5.75,0,0,1-2.24,1.74,8.23,8.23,0,0,1-3.47.66,7.69,7.69,0,0,1-4-.94,5.84,5.84,0,0,1-2.37-2.62,9.08,9.08,0,0,1-.78-3.86,9.23,9.23,0,0,1,.81-4,6.24,6.24,0,0,1,2.41-2.7,7.38,7.38,0,0,1,3.92-1,7,7,0,0,1,3.75.94A5.9,5.9,0,0,1,549,245.8a8.54,8.54,0,0,1,.75,3.65c0,.24,0,.51,0,.79a5.86,5.86,0,0,1-.09.72h-9.8a4.52,4.52,0,0,0,1,2.47,2.78,2.78,0,0,0,2.25.89,3.51,3.51,0,0,0,1.79-.42,2.17,2.17,0,0,0,1-1.2Zm-6.55-7.48q-2.61,0-3.16,3h5.15a.87.87,0,0,0,.57-.14.64.64,0,0,0,.16-.48,2.4,2.4,0,0,0-.7-1.65A2.64,2.64,0,0,0,543.07,245.22Z"/><path class="cls-4" d="M552.69,257.1V242.59h3.39l.28,1.82A4.51,4.51,0,0,1,558,242.9a5.49,5.49,0,0,1,2.65-.59,5.07,5.07,0,0,1,3.63,1.3,5.28,5.28,0,0,1,1.35,4v9.52h-3.92v-8.82c0-1.65-.76-2.47-2.29-2.47a3.21,3.21,0,0,0-2,.65,2.18,2.18,0,0,0-.87,1.87v8.77Z"/><path class="cls-4" d="M568.16,252.81h3.78a1.79,1.79,0,0,0,1,1.23,3.8,3.8,0,0,0,1.6.34,3.63,3.63,0,0,0,1.73-.38,1.23,1.23,0,0,0,.7-1.16,1.06,1.06,0,0,0-.53-1,4.17,4.17,0,0,0-1.65-.42l-1.21-.14a10.9,10.9,0,0,1-2.66-.66,3.94,3.94,0,0,1-1.79-1.37,4,4,0,0,1-.64-2.39,4,4,0,0,1,1.62-3.31,7,7,0,0,1,4.4-1.26,6.76,6.76,0,0,1,4.34,1.26,4.67,4.67,0,0,1,1.76,3.33H576.9a1.64,1.64,0,0,0-.9-1.27,3.48,3.48,0,0,0-1.45-.32,2.91,2.91,0,0,0-1.63.38,1.16,1.16,0,0,0-.59,1,1,1,0,0,0,.4.85,3.15,3.15,0,0,0,1.56.46l1.21.14a12.1,12.1,0,0,1,2.71.62,4.44,4.44,0,0,1,2,1.37,4,4,0,0,1,.74,2.52,4.18,4.18,0,0,1-1.62,3.39,7.34,7.34,0,0,1-4.71,1.32,7.44,7.44,0,0,1-4.58-1.24A4.6,4.6,0,0,1,568.16,252.81Z"/><path class="cls-4" d="M596.85,252.7a4.89,4.89,0,0,1-1,2.28,5.75,5.75,0,0,1-2.24,1.74,8.23,8.23,0,0,1-3.47.66,7.75,7.75,0,0,1-4-.94,5.88,5.88,0,0,1-2.36-2.62A9.08,9.08,0,0,1,583,250a9.23,9.23,0,0,1,.82-4,6.28,6.28,0,0,1,2.4-2.7,7.4,7.4,0,0,1,3.92-1,7,7,0,0,1,3.76.94,6,6,0,0,1,2.27,2.55,8.54,8.54,0,0,1,.75,3.65c0,.24,0,.51,0,.79a6.06,6.06,0,0,1-.08.72h-9.8a4.6,4.6,0,0,0,1,2.47,2.82,2.82,0,0,0,2.26.89,3.51,3.51,0,0,0,1.79-.42,2.21,2.21,0,0,0,1-1.2Zm-6.55-7.48c-1.74,0-2.79,1-3.17,3h5.16a.89.89,0,0,0,.57-.14.64.64,0,0,0,.15-.48,2.36,2.36,0,0,0-.7-1.65A2.62,2.62,0,0,0,590.3,245.22Z"/><path class="cls-4" d="M469,280.86h3.78a6.71,6.71,0,0,1-.92,2.81,5.83,5.83,0,0,1-2.21,2.14,7.09,7.09,0,0,1-3.53.81,7.72,7.72,0,0,1-3.95-.93,5.94,5.94,0,0,1-2.39-2.62,8.87,8.87,0,0,1-.8-3.89,9.23,9.23,0,0,1,.81-4,6.1,6.1,0,0,1,2.42-2.68,7.56,7.56,0,0,1,4-1,6.94,6.94,0,0,1,3.5.81,5.73,5.73,0,0,1,2.14,2.12,7,7,0,0,1,.88,2.84h-3.78a2.62,2.62,0,0,0-2.77-2.35,2.75,2.75,0,0,0-2.36,1.1,5.17,5.17,0,0,0-.81,3.1,4.87,4.87,0,0,0,.8,2.95,2.72,2.72,0,0,0,2.34,1.08,3,3,0,0,0,1.9-.59A2.77,2.77,0,0,0,469,280.86Z"/><path class="cls-4" d="M482.25,286.62a7.81,7.81,0,0,1-4-.95A5.89,5.89,0,0,1,475.8,283a9.13,9.13,0,0,1-.8-3.91,9,9,0,0,1,.81-3.93,6.15,6.15,0,0,1,2.44-2.66,7.65,7.65,0,0,1,4-1,7.88,7.88,0,0,1,4.05.95,6,6,0,0,1,2.41,2.63,9.08,9.08,0,0,1,.8,3.92,8.86,8.86,0,0,1-.82,3.92,6.16,6.16,0,0,1-2.42,2.68A7.72,7.72,0,0,1,482.25,286.62Zm0-3.41a2.89,2.89,0,0,0,2.43-1.09,5,5,0,0,0,.82-3.06,4.87,4.87,0,0,0-.82-3,3.28,3.28,0,0,0-4.85,0,5,5,0,0,0-.82,3.07,4.85,4.85,0,0,0,.82,3A2.86,2.86,0,0,0,482.25,283.21Z"/><path class="cls-4" d="M492.46,286.34v-14.5h3.39l.28,1.82a4.38,4.38,0,0,1,1.67-1.51,5.45,5.45,0,0,1,2.64-.59,5,5,0,0,1,3.63,1.3,5.28,5.28,0,0,1,1.36,4v9.52h-3.92v-8.82c0-1.64-.77-2.46-2.3-2.46a3.2,3.2,0,0,0-2,.64,2.2,2.2,0,0,0-.87,1.88v8.76Z"/><path class="cls-4" d="M509.78,282.17V275h-2.35V272h1.48a1.32,1.32,0,0,0,.81-.18,1.14,1.14,0,0,0,.28-.8l.42-3.33h3.25v4.2H517V275H513.7v6.5a2,2,0,0,0,.41,1.43,2.16,2.16,0,0,0,1.55.42h1.57v3c-.36.06-.79.11-1.3.15s-1,.07-1.56.07a4.8,4.8,0,0,1-3.5-1.09A4.62,4.62,0,0,1,509.78,282.17Z"/><path class="cls-4" d="M520.18,286.34v-14.5h3.39l.31,2a4.59,4.59,0,0,1,1.54-1.56,4.33,4.33,0,0,1,2.35-.62,5.07,5.07,0,0,1,.66,0,3.7,3.7,0,0,1,.55.1v3.5h-1.1a4.41,4.41,0,0,0-2.82.77,3.14,3.14,0,0,0-1,2.59v7.64Z"/><path class="cls-4" d="M537.7,286.62a7.78,7.78,0,0,1-4-.95,5.84,5.84,0,0,1-2.42-2.64,9.95,9.95,0,0,1,0-7.84,6,6,0,0,1,2.44-2.66,7.62,7.62,0,0,1,4-1,7.93,7.93,0,0,1,4,.95,6,6,0,0,1,2.4,2.63,9.95,9.95,0,0,1,0,7.84,6.16,6.16,0,0,1-2.42,2.68A7.74,7.74,0,0,1,537.7,286.62Zm0-3.41a2.87,2.87,0,0,0,2.42-1.09,5,5,0,0,0,.83-3.06,4.87,4.87,0,0,0-.83-3,3.27,3.27,0,0,0-4.84,0,5,5,0,0,0-.83,3.07,4.85,4.85,0,0,0,.83,3A2.86,2.86,0,0,0,537.7,283.21Z"/><path class="cls-4" d="M547.91,286.34v-20h3.92v20Z"/><path class="cls-4" d="M554.48,282.06h3.78a1.76,1.76,0,0,0,1,1.23,3.83,3.83,0,0,0,1.6.34,3.67,3.67,0,0,0,1.74-.38,1.25,1.25,0,0,0,.7-1.16,1,1,0,0,0-.54-1,4.07,4.07,0,0,0-1.65-.42l-1.2-.14a10.67,10.67,0,0,1-2.66-.66,4,4,0,0,1-1.79-1.37,4.08,4.08,0,0,1-.65-2.4,4,4,0,0,1,1.63-3.3,7,7,0,0,1,4.39-1.26,6.74,6.74,0,0,1,4.34,1.26,4.65,4.65,0,0,1,1.77,3.33h-3.73a1.66,1.66,0,0,0-.89-1.27,3.37,3.37,0,0,0-1.46-.32,3,3,0,0,0-1.62.37,1.17,1.17,0,0,0-.59,1,1,1,0,0,0,.39.85,3.31,3.31,0,0,0,1.57.46l1.2.14a11.66,11.66,0,0,1,2.72.62,4.34,4.34,0,0,1,2,1.37,3.9,3.9,0,0,1,.75,2.52,4.19,4.19,0,0,1-1.63,3.39,7.29,7.29,0,0,1-4.7,1.31,7.49,7.49,0,0,1-4.58-1.23A4.6,4.6,0,0,1,554.48,282.06Z"/><circle class="cls-3" cx="830" cy="422.41" r="125"/><path class="cls-4" d="M761,477.54V458.22h4.11v19.32Z"/><path class="cls-4" d="M769,477.54V463h3.39l.28,1.82a4.48,4.48,0,0,1,1.67-1.52,5.48,5.48,0,0,1,2.64-.58,5,5,0,0,1,3.63,1.3,5.24,5.24,0,0,1,1.36,4v9.52H778v-8.82c0-1.64-.77-2.46-2.3-2.46a3.2,3.2,0,0,0-2,.64,2.2,2.2,0,0,0-.87,1.88v8.76Z"/><path class="cls-4" d="M788.61,477.54l-4.9-14.5H788l2.66,9.71q.17.51.39.51c.15,0,.28-.17.4-.51L794.1,463h4.17l-4.9,14.5Z"/><path class="cls-4" d="M813.15,473.14a4.88,4.88,0,0,1-1,2.29,5.73,5.73,0,0,1-2.24,1.73,8.23,8.23,0,0,1-3.47.66,7.59,7.59,0,0,1-4-.94,5.79,5.79,0,0,1-2.37-2.62,9,9,0,0,1-.78-3.86,9.22,9.22,0,0,1,.81-4,6.13,6.13,0,0,1,2.41-2.7,7.29,7.29,0,0,1,3.92-1,7,7,0,0,1,3.75.94,5.88,5.88,0,0,1,2.27,2.54,8.58,8.58,0,0,1,.75,3.66c0,.24,0,.5,0,.78a6.32,6.32,0,0,1-.09.73h-9.8a4.46,4.46,0,0,0,1,2.46,2.79,2.79,0,0,0,2.25.9,3.51,3.51,0,0,0,1.79-.42,2.19,2.19,0,0,0,1-1.21Zm-6.55-7.47q-2.61,0-3.16,3h5.15a.82.82,0,0,0,.57-.14.62.62,0,0,0,.16-.47,2.44,2.44,0,0,0-.7-1.66A2.63,2.63,0,0,0,806.6,465.67Z"/><path class="cls-4" d="M815.27,473.26h3.78a1.81,1.81,0,0,0,1,1.23,3.91,3.91,0,0,0,1.59.34,3.67,3.67,0,0,0,1.74-.38,1.25,1.25,0,0,0,.7-1.16,1.07,1.07,0,0,0-.53-1,4.54,4.54,0,0,0-1.66-.42l-1.2-.13a11.76,11.76,0,0,1-2.66-.66,3.91,3.91,0,0,1-1.79-1.38,4.36,4.36,0,0,1,1-5.69,7,7,0,0,1,4.39-1.26A6.74,6.74,0,0,1,826,464a4.65,4.65,0,0,1,1.77,3.33H824a1.64,1.64,0,0,0-.89-1.27,3.38,3.38,0,0,0-1.46-.33,3,3,0,0,0-1.62.38,1.16,1.16,0,0,0-.59,1,1.06,1.06,0,0,0,.39.86,3.31,3.31,0,0,0,1.57.46l1.2.14a12.2,12.2,0,0,1,2.72.61,4.35,4.35,0,0,1,2,1.38,3.86,3.86,0,0,1,.75,2.52,4.15,4.15,0,0,1-1.63,3.38,7.29,7.29,0,0,1-4.7,1.32,7.49,7.49,0,0,1-4.58-1.23A4.6,4.6,0,0,1,815.27,473.26Z"/><path class="cls-4" d="M831.8,473.37V466.2h-2.35v-3.05h1.49a1.34,1.34,0,0,0,.81-.18,1.19,1.19,0,0,0,.28-.8l.42-3.33h3.25V463H839v3.16h-3.25v6.5a2,2,0,0,0,.41,1.42,2.12,2.12,0,0,0,1.55.42h1.57v3.06l-1.3.15c-.51.05-1,.07-1.55.07a4.77,4.77,0,0,1-3.5-1.09A4.58,4.58,0,0,1,831.8,473.37Z"/><path class="cls-4" d="M842.1,461.16v-3.64h4.14v3.64Zm.11,16.38V463h3.92v14.5Z"/><path class="cls-4" d="M862.66,478.33a4.08,4.08,0,0,1-1.8,3.55,9.83,9.83,0,0,1-5.56,1.26q-3.64,0-5.22-1.1a3.25,3.25,0,0,1-1.58-2.74,2.33,2.33,0,0,1,.76-1.91,4.33,4.33,0,0,1,1.62-.86,2.86,2.86,0,0,1-1-.94,2.91,2.91,0,0,1,.11-3.24,3.25,3.25,0,0,1,1.52-1.08,3.8,3.8,0,0,1-1.58-1.6,4.63,4.63,0,0,1-.49-2.13,4.37,4.37,0,0,1,1.53-3.44,6.67,6.67,0,0,1,4.52-1.34,9.31,9.31,0,0,1,2,.19,6.49,6.49,0,0,1,1.56.54h4v2.6l-1.85-.09a3,3,0,0,1,.39.82,3.47,3.47,0,0,1,.14,1,3.88,3.88,0,0,1-.63,2.11,4.45,4.45,0,0,1-2,1.61,8.85,8.85,0,0,1-3.58.62,12.19,12.19,0,0,1-1.88-.14,1.43,1.43,0,0,0-.67.48,1.07,1.07,0,0,0-.2.58c0,.63.41,1,1.23,1h3.61a5.51,5.51,0,0,1,3.79,1.15A4,4,0,0,1,862.66,478.33ZM856.87,477h-2.94a1.85,1.85,0,0,0-1,.35,1.2,1.2,0,0,0-.53,1.07,1.54,1.54,0,0,0,.74,1.24,4.24,4.24,0,0,0,2.4.53,4.55,4.55,0,0,0,2.5-.53,1.59,1.59,0,0,0,.77-1.32,1.13,1.13,0,0,0-.53-1A2.57,2.57,0,0,0,856.87,477Zm-3.67-9.52a1.53,1.53,0,0,0,.59,1.28,2.79,2.79,0,0,0,1.79.48,2.85,2.85,0,0,0,1.82-.48,1.55,1.55,0,0,0,.59-1.28,1.67,1.67,0,0,0-.59-1.32,2.79,2.79,0,0,0-1.82-.5,2.73,2.73,0,0,0-1.79.5A1.64,1.64,0,0,0,853.2,467.52Z"/><path class="cls-4" d="M874.3,477.54l-.25-1.57a4.33,4.33,0,0,1-1.64,1.32,6.23,6.23,0,0,1-2.73.53,5.41,5.41,0,0,1-3.66-1.15,3.94,3.94,0,0,1-1.33-3.13,4.08,4.08,0,0,1,.68-2.48,4,4,0,0,1,1.77-1.36,10.11,10.11,0,0,1,2.45-.62l2.92-.39a2.06,2.06,0,0,0,1-.31.74.74,0,0,0,.24-.61,2,2,0,0,0-.53-1.33,2.4,2.4,0,0,0-1.85-.6,3.13,3.13,0,0,0-1.75.47,1.91,1.91,0,0,0-.83,1.43h-3.64a4.68,4.68,0,0,1,.77-2.48,5.32,5.32,0,0,1,2.17-1.82,8.07,8.07,0,0,1,3.47-.68,6.13,6.13,0,0,1,4.5,1.55,5.88,5.88,0,0,1,1.55,4.33v8.9Zm-.53-4.9v-1.48l-3.2.42a3.34,3.34,0,0,0-1.51.53,1.31,1.31,0,0,0-.53,1.12,1.38,1.38,0,0,0,.6,1.2,2.82,2.82,0,0,0,1.64.42,4,4,0,0,0,2.07-.53A1.79,1.79,0,0,0,873.77,472.64Z"/><path class="cls-4" d="M882,473.37V466.2h-2.35v-3.05h1.48a1.34,1.34,0,0,0,.81-.18,1.19,1.19,0,0,0,.28-.8l.42-3.33h3.25V463h3.28v3.16h-3.25v6.5a2,2,0,0,0,.4,1.42,2.13,2.13,0,0,0,1.56.42h1.57v3.06l-1.31.15c-.51.05-1,.07-1.55.07a4.78,4.78,0,0,1-3.5-1.09A4.57,4.57,0,0,1,882,473.37Z"/><path class="cls-4" d="M905.1,473.14a4.88,4.88,0,0,1-1,2.29,5.73,5.73,0,0,1-2.24,1.73,8.23,8.23,0,0,1-3.47.66,7.59,7.59,0,0,1-4-.94,5.79,5.79,0,0,1-2.37-2.62,9,9,0,0,1-.78-3.86,9.22,9.22,0,0,1,.81-4,6.13,6.13,0,0,1,2.41-2.7,7.29,7.29,0,0,1,3.92-1,7,7,0,0,1,3.75.94,5.88,5.88,0,0,1,2.27,2.54,8.58,8.58,0,0,1,.75,3.66q0,.36,0,.78a4.79,4.79,0,0,1-.08.73h-9.8a4.46,4.46,0,0,0,1,2.46,2.79,2.79,0,0,0,2.25.9,3.51,3.51,0,0,0,1.79-.42,2.19,2.19,0,0,0,1-1.21Zm-6.55-7.47c-1.74,0-2.79,1-3.17,3h5.16a.82.82,0,0,0,.57-.14.62.62,0,0,0,.15-.47,2.4,2.4,0,0,0-.7-1.66A2.6,2.6,0,0,0,898.55,465.67Z"/><path class="cls-4" d="M772.75,490.41v-3.64h4.14v3.64Zm.11,16.38v-14.5h3.92v14.5Z"/><path class="cls-4" d="M780.38,506.79v-14.5h3.38l.28,1.82a4.56,4.56,0,0,1,1.67-1.52,5.49,5.49,0,0,1,2.65-.59,5,5,0,0,1,3.62,1.31,5.22,5.22,0,0,1,1.36,4v9.52h-3.92V498c0-1.64-.77-2.47-2.3-2.47a3.23,3.23,0,0,0-2,.65,2.21,2.21,0,0,0-.86,1.88v8.76Z"/><path class="cls-4" d="M806.18,501.3H810a6.75,6.75,0,0,1-.92,2.82,5.93,5.93,0,0,1-2.22,2.14,7,7,0,0,1-3.52.81,7.62,7.62,0,0,1-3.95-.94,5.91,5.91,0,0,1-2.4-2.62,9,9,0,0,1-.79-3.89,9.22,9.22,0,0,1,.81-4,6.13,6.13,0,0,1,2.42-2.69,7.59,7.59,0,0,1,4-1,6.89,6.89,0,0,1,3.5.82,5.57,5.57,0,0,1,2.14,2.11,7,7,0,0,1,.89,2.84H806.1a2.63,2.63,0,0,0-2.78-2.35,2.74,2.74,0,0,0-2.35,1.11,5.14,5.14,0,0,0-.81,3.09,4.91,4.91,0,0,0,.8,3,2.74,2.74,0,0,0,2.34,1.07,3,3,0,0,0,1.9-.58A2.87,2.87,0,0,0,806.18,501.3Z"/><path class="cls-4" d="M812.8,490.41v-3.64H817v3.64Zm.12,16.38v-14.5h3.91v14.5Z"/><path class="cls-4" d="M830.6,506.79l-.31-1.85a4.35,4.35,0,0,1-1.79,1.57,5.91,5.91,0,0,1-2.6.56,5.53,5.53,0,0,1-3.32-1,6.1,6.1,0,0,1-2.07-2.67,9.72,9.72,0,0,1-.72-3.83,9.83,9.83,0,0,1,.73-3.88,6.24,6.24,0,0,1,2.11-2.71,5.77,5.77,0,0,1,3.43-1,4.82,4.82,0,0,1,4,1.77v-7H834v20Zm-.53-5.88v-2.86a2.25,2.25,0,0,0-.94-2,3.67,3.67,0,0,0-2.09-.63,2.81,2.81,0,0,0-2.42,1.12,5,5,0,0,0-.82,3,5,5,0,0,0,.81,3,2.75,2.75,0,0,0,2.41,1.13,3.83,3.83,0,0,0,1.45-.29,2.7,2.7,0,0,0,1.15-.91A2.53,2.53,0,0,0,830.07,500.91Z"/><path class="cls-4" d="M850.75,502.39a4.9,4.9,0,0,1-1,2.28,5.75,5.75,0,0,1-2.24,1.74,8.23,8.23,0,0,1-3.47.66,7.65,7.65,0,0,1-4-.94,5.83,5.83,0,0,1-2.36-2.62,8.9,8.9,0,0,1-.79-3.86,9.18,9.18,0,0,1,.81-4,6.25,6.25,0,0,1,2.41-2.7,7.31,7.31,0,0,1,3.92-1,7,7,0,0,1,3.75.94,5.89,5.89,0,0,1,2.27,2.55,8.41,8.41,0,0,1,.76,3.66q0,.36,0,.78c0,.28-.05.52-.08.73H841a4.59,4.59,0,0,0,1,2.46,2.82,2.82,0,0,0,2.26.9,3.54,3.54,0,0,0,1.79-.42,2.23,2.23,0,0,0,1-1.21Zm-6.55-7.47c-1.74,0-2.8,1-3.17,3h5.15a.93.93,0,0,0,.58-.14.62.62,0,0,0,.15-.47,2.4,2.4,0,0,0-.7-1.66A2.62,2.62,0,0,0,844.2,494.92Z"/><path class="cls-4" d="M853.82,506.79v-14.5h3.38l.28,1.82a4.56,4.56,0,0,1,1.67-1.52,5.49,5.49,0,0,1,2.65-.59,5,5,0,0,1,3.62,1.31,5.22,5.22,0,0,1,1.36,4v9.52h-3.92V498c0-1.64-.77-2.47-2.3-2.47a3.23,3.23,0,0,0-2,.65,2.21,2.21,0,0,0-.86,1.88v8.76Z"/><path class="cls-4" d="M871.13,502.62v-7.17h-2.35V492.4h1.49a1.27,1.27,0,0,0,.81-.19,1.16,1.16,0,0,0,.28-.79l.42-3.34H875v4.21h3.27v3.16h-3.25V502a2,2,0,0,0,.41,1.42,2.16,2.16,0,0,0,1.55.42h1.57v3c-.35.06-.79.11-1.3.16s-1,.07-1.55.07a4.78,4.78,0,0,1-3.5-1.09A4.58,4.58,0,0,1,871.13,502.62Z"/><path class="cls-4" d="M880.58,502.5h3.79a1.79,1.79,0,0,0,1,1.24,4,4,0,0,0,1.6.33,3.67,3.67,0,0,0,1.74-.37,1.26,1.26,0,0,0,.7-1.17,1,1,0,0,0-.54-1,4.43,4.43,0,0,0-1.65-.42L886,501a10.67,10.67,0,0,1-2.66-.66,3.77,3.77,0,0,1-1.79-1.37,4.37,4.37,0,0,1,1-5.7,7,7,0,0,1,4.39-1.26,6.74,6.74,0,0,1,4.34,1.26,4.69,4.69,0,0,1,1.77,3.34h-3.73a1.67,1.67,0,0,0-.89-1.28A3.56,3.56,0,0,0,887,495a3,3,0,0,0-1.62.38,1.14,1.14,0,0,0-.59,1,1,1,0,0,0,.39.85,3.25,3.25,0,0,0,1.57.47l1.2.14a11.66,11.66,0,0,1,2.72.61,4.41,4.41,0,0,1,2,1.37,3.91,3.91,0,0,1,.74,2.53,4.14,4.14,0,0,1-1.62,3.38,7.29,7.29,0,0,1-4.7,1.32,7.49,7.49,0,0,1-4.58-1.23A4.61,4.61,0,0,1,880.58,502.5Z"/><circle class="cls-3" cx="194" cy="422.41" r="125"/><path class="cls-4" d="M104.93,477.54V461.8H99.36v-3.58h15.26v3.58h-5.57v15.74Z"/><path class="cls-4" d="M117.25,477.54v-20h3.92v7a4.49,4.49,0,0,1,1.64-1.27,5.5,5.5,0,0,1,2.42-.49,5,5,0,0,1,3.62,1.3,5.24,5.24,0,0,1,1.37,4v9.52H126.3v-8.82c0-1.64-.77-2.46-2.3-2.46a3.2,3.2,0,0,0-2,.64,2.2,2.2,0,0,0-.87,1.88v8.76Z"/><path class="cls-4" d="M133.44,477.54V463h3.39l.3,2a4.71,4.71,0,0,1,1.54-1.57,4.35,4.35,0,0,1,2.35-.61,5.07,5.07,0,0,1,.66,0,3.46,3.46,0,0,1,.55.1v3.5h-1.09a4.38,4.38,0,0,0-2.83.77,3.12,3.12,0,0,0-.95,2.59v7.64Z"/><path class="cls-4" d="M157.26,473.14a4.86,4.86,0,0,1-1,2.29,5.77,5.77,0,0,1-2.25,1.73,8.2,8.2,0,0,1-3.47.66,7.64,7.64,0,0,1-4-.94,5.83,5.83,0,0,1-2.36-2.62,8.9,8.9,0,0,1-.79-3.86,9.22,9.22,0,0,1,.81-4,6.19,6.19,0,0,1,2.41-2.7,7.31,7.31,0,0,1,3.92-1,7,7,0,0,1,3.75.94,5.81,5.81,0,0,1,2.27,2.54,8.58,8.58,0,0,1,.76,3.66q0,.36,0,.78a6.32,6.32,0,0,1-.09.73h-9.8a4.53,4.53,0,0,0,1,2.46,2.8,2.8,0,0,0,2.25.9,3.58,3.58,0,0,0,1.8-.42,2.18,2.18,0,0,0,1-1.21Zm-6.55-7.47c-1.73,0-2.79,1-3.16,3h5.15a.82.82,0,0,0,.57-.14.58.58,0,0,0,.16-.47,2.4,2.4,0,0,0-.7-1.66A2.63,2.63,0,0,0,150.71,465.67Z"/><path class="cls-4" d="M169.14,477.54l-.25-1.57a4.33,4.33,0,0,1-1.64,1.32,6.23,6.23,0,0,1-2.73.53,5.41,5.41,0,0,1-3.66-1.15,3.94,3.94,0,0,1-1.33-3.13,4.08,4.08,0,0,1,.68-2.48A4,4,0,0,1,162,469.7a10.11,10.11,0,0,1,2.45-.62l2.92-.39a2.06,2.06,0,0,0,1-.31.74.74,0,0,0,.24-.61,1.94,1.94,0,0,0-.54-1.33,2.36,2.36,0,0,0-1.84-.6,3.13,3.13,0,0,0-1.75.47,1.91,1.91,0,0,0-.83,1.43H160a4.68,4.68,0,0,1,.77-2.48,5.32,5.32,0,0,1,2.17-1.82,8.07,8.07,0,0,1,3.47-.68,6.13,6.13,0,0,1,4.5,1.55,5.88,5.88,0,0,1,1.55,4.33v8.9Zm-.53-4.9v-1.48l-3.2.42a3.34,3.34,0,0,0-1.51.53,1.31,1.31,0,0,0-.53,1.12,1.38,1.38,0,0,0,.6,1.2,2.82,2.82,0,0,0,1.64.42,4,4,0,0,0,2.07-.53A1.79,1.79,0,0,0,168.61,472.64Z"/><path class="cls-4" d="M176.56,473.37V466.2h-2.35v-3.05h1.48a1.34,1.34,0,0,0,.81-.18,1.19,1.19,0,0,0,.28-.8l.42-3.33h3.25V463h3.28v3.16h-3.25v6.5a2,2,0,0,0,.4,1.42,2.13,2.13,0,0,0,1.56.42H184v3.06l-1.31.15c-.51.05-1,.07-1.55.07a4.78,4.78,0,0,1-3.5-1.09A4.57,4.57,0,0,1,176.56,473.37Z"/><path class="cls-4" d="M192.71,477.54v-20h3.92v7a4.49,4.49,0,0,1,1.64-1.27,5.5,5.5,0,0,1,2.42-.49,5,5,0,0,1,3.62,1.3,5.24,5.24,0,0,1,1.37,4v9.52h-3.92v-8.82c0-1.64-.77-2.46-2.3-2.46a3.2,3.2,0,0,0-2,.64,2.2,2.2,0,0,0-.87,1.88v8.76Z"/><path class="cls-4" d="M208.76,472.56V463h3.92v8.82c0,1.66.74,2.49,2.24,2.49a3,3,0,0,0,1.91-.66,2.25,2.25,0,0,0,.86-1.89V463h3.92v14.5h-3.39l-.28-1.82a4.39,4.39,0,0,1-1.65,1.51,5.36,5.36,0,0,1-2.61.59,4.92,4.92,0,0,1-3.58-1.3A5.31,5.31,0,0,1,208.76,472.56Z"/><path class="cls-4" d="M225,477.54V463h3.39l.28,1.82a4.45,4.45,0,0,1,1.66-1.52,5.49,5.49,0,0,1,2.65-.58,5,5,0,0,1,3.62,1.3,5.24,5.24,0,0,1,1.36,4v9.52H234v-8.82c0-1.64-.76-2.46-2.29-2.46a3.18,3.18,0,0,0-2,.64,2.2,2.2,0,0,0-.87,1.88v8.76Z"/><path class="cls-4" d="M242.05,473.37V466.2H239.7v-3.05h1.48A1.34,1.34,0,0,0,242,463a1.19,1.19,0,0,0,.28-.8l.42-3.33h3.25V463h3.28v3.16H246v6.5a2,2,0,0,0,.4,1.42,2.13,2.13,0,0,0,1.56.42h1.57v3.06l-1.31.15c-.51.05-1,.07-1.55.07a4.78,4.78,0,0,1-3.5-1.09A4.57,4.57,0,0,1,242.05,473.37Z"/><path class="cls-4" d="M252.1,461.16v-3.64h4.14v3.64Zm.11,16.38V463h3.92v14.5Z"/><path class="cls-4" d="M259.49,477.54V463h3.39l.28,1.82a4.48,4.48,0,0,1,1.67-1.52,5.45,5.45,0,0,1,2.64-.58,5,5,0,0,1,3.63,1.3,5.28,5.28,0,0,1,1.36,4v9.52h-3.92v-8.82c0-1.64-.77-2.46-2.3-2.46a3.2,3.2,0,0,0-2,.64,2.2,2.2,0,0,0-.87,1.88v8.76Z"/><path class="cls-4" d="M288.61,478.33a4.06,4.06,0,0,1-1.81,3.55,9.77,9.77,0,0,1-5.55,1.26q-3.64,0-5.22-1.1a3.26,3.26,0,0,1-1.59-2.74,2.34,2.34,0,0,1,.77-1.91,4.36,4.36,0,0,1,1.61-.86,3,3,0,0,1-1.05-.94,2.62,2.62,0,0,1-.43-1.58,2.66,2.66,0,0,1,.54-1.66,3.33,3.33,0,0,1,1.53-1.08,3.74,3.74,0,0,1-1.58-1.6,4.63,4.63,0,0,1-.49-2.13,4.37,4.37,0,0,1,1.53-3.44,6.67,6.67,0,0,1,4.52-1.34,9.37,9.37,0,0,1,2,.19,6.26,6.26,0,0,1,1.55.54h4v2.6l-1.85-.09a3.26,3.26,0,0,1,.39.82,3.47,3.47,0,0,1,.14,1,3.88,3.88,0,0,1-.63,2.11,4.45,4.45,0,0,1-2,1.61,8.87,8.87,0,0,1-3.59.62,12.16,12.16,0,0,1-1.87-.14,1.43,1.43,0,0,0-.67.48,1,1,0,0,0-.2.58c0,.63.41,1,1.23,1h3.61a5.5,5.5,0,0,1,3.78,1.15A4,4,0,0,1,288.61,478.33ZM282.82,477h-2.94a1.83,1.83,0,0,0-1,.35,1.18,1.18,0,0,0-.53,1.07,1.51,1.51,0,0,0,.74,1.24,4.2,4.2,0,0,0,2.39.53,4.57,4.57,0,0,0,2.51-.53,1.59,1.59,0,0,0,.77-1.32,1.13,1.13,0,0,0-.53-1A2.57,2.57,0,0,0,282.82,477Zm-3.67-9.52a1.53,1.53,0,0,0,.59,1.28,2.77,2.77,0,0,0,1.79.48,2.85,2.85,0,0,0,1.82-.48,1.55,1.55,0,0,0,.59-1.28,1.67,1.67,0,0,0-.59-1.32,2.79,2.79,0,0,0-1.82-.5,2.71,2.71,0,0,0-1.79.5A1.64,1.64,0,0,0,279.15,467.52Z"/><path class="cls-2" d="M129.87,410.26a12.7,12.7,0,1,1,12.7,12.7A12.67,12.67,0,0,1,129.87,410.26Z"/><path class="cls-2" d="M201.54,422.7a12.7,12.7,0,1,1,12.7,12.7A12.64,12.64,0,0,1,201.54,422.7Z"/><path class="cls-2" d="M236.48,368.69a12.7,12.7,0,1,1,12.7,12.69A12.65,12.65,0,0,1,236.48,368.69Z"/><path class="cls-4" d="M142.57,425.21a14.95,14.95,0,1,1,14.94-14.95A15,15,0,0,1,142.57,425.21Zm0-25.39a10.45,10.45,0,0,0-10.45,10.44,10.45,10.45,0,1,0,10.45-10.44Z"/><path class="cls-4" d="M214.24,437.65a14.94,14.94,0,0,1-10.57-25.51,14.94,14.94,0,0,1,25.51,10.56A15,15,0,0,1,214.24,437.65Zm0-25.39a10.45,10.45,0,1,0,10.44,10.44A10.39,10.39,0,0,0,214.24,412.26Z"/><path class="cls-4" d="M249.18,383.63a14.95,14.95,0,1,1,14.94-14.94A15,15,0,0,1,249.18,383.63Zm0-25.39a10.45,10.45,0,1,0,10.44,10.45A10.39,10.39,0,0,0,249.18,358.24Z"/><path class="cls-4" d="M221.64,413.92a2.22,2.22,0,0,1-1.29-.41,2.25,2.25,0,0,1-.54-3.14L242,379a2.25,2.25,0,0,1,3.67,2.6L223.48,413A2.23,2.23,0,0,1,221.64,413.92Z"/><path class="cls-4" d="M207.25,414.17a2.22,2.22,0,0,1-1.71-.8L190,395.09a2.25,2.25,0,1,1,3.42-2.91L209,410.46a2.26,2.26,0,0,1-1.72,3.71Z"/><path class="cls-4" d="M152,402.42a2.25,2.25,0,0,1-1.51-3.92l8.78-7.92a2.24,2.24,0,1,1,3,3.33l-8.77,7.93A2.24,2.24,0,0,1,152,402.42Z"/><path class="cls-4" d="M176.76,402.44a22.31,22.31,0,1,1,22.32-22.31A22.34,22.34,0,0,1,176.76,402.44Zm0-40.12a17.81,17.81,0,1,0,17.82,17.81A17.83,17.83,0,0,0,176.76,362.32Z"/><path class="cls-5" d="M177.31,384.57a2.25,2.25,0,0,1-2.25-2.25V369.55a2.25,2.25,0,0,1,4.5,0v12.77A2.25,2.25,0,0,1,177.31,384.57Z"/><path class="cls-5" d="M177.31,393.87a2.25,2.25,0,0,1-2.25-2.25v-1.09a2.25,2.25,0,0,1,4.5,0v1.09A2.25,2.25,0,0,1,177.31,393.87Z"/><circle class="cls-3" cx="512" cy="530.5" r="129"/><path class="cls-6" d="M512,662.5a132,132,0,1,1,132-132A132.14,132.14,0,0,1,512,662.5Zm0-258a126,126,0,1,0,126,126A126.14,126.14,0,0,0,512,404.5Z"/><path class="cls-7" d="M443.19,526.42V498.13h6.48L458,517.89l8.37-19.76h6.35v28.29h-5.82V508.29L460,524.57H455.9L449,508.29v18.13Z"/><path class="cls-7" d="M482.61,526.42V498.13h6v28.29Z"/><path class="cls-7" d="M504.75,526.42v-23h-8.16v-5.25h22.34v5.25h-8.16v23Z"/><path class="cls-7" d="M526.9,526.42V498.13h11.56a13.22,13.22,0,0,1,5.78,1.08,7.18,7.18,0,0,1,3.26,3,8.87,8.87,0,0,1,1,4.36,7.72,7.72,0,0,1-1.17,4.43,6.88,6.88,0,0,1-3.1,2.54,4.94,4.94,0,0,1,2.44,1.68,8.54,8.54,0,0,1,1.42,3.32l1.8,7.88h-6.31l-1.4-6.64a4.33,4.33,0,0,0-1.55-2.92,6.11,6.11,0,0,0-3.2-.69h-4.63v10.25ZM537.56,503h-4.71v8.37h4.67a6.05,6.05,0,0,0,3.65-1,3.67,3.67,0,0,0,1.35-3.19,3.72,3.72,0,0,0-1.33-3.18A5.9,5.9,0,0,0,537.56,503Z"/><path class="cls-7" d="M558.2,526.42V498.13h19v5.16h-13v6.11H576v5.13H564.15v6.72h13.4v5.17Z"/><path class="cls-7" d="M420.71,568.14l10-28.29h7l10,28.29h-6.52L439.28,562H429l-1.84,6.11ZM433.54,547l-3,10h7.22l-3-10c-.14-.41-.33-.61-.57-.61S433.68,546.61,433.54,547Z"/><path class="cls-7" d="M458.55,568.14v-23h-8.16v-5.25h22.35v5.25h-8.16v23Z"/><path class="cls-7" d="M488.21,568.14v-23h-8.16v-5.25h22.34v5.25h-8.16v23Z"/><path class="cls-7" d="M531.47,568.47a11.83,11.83,0,0,1-3.18-.41,7.22,7.22,0,0,1-2.68-1.44,12.35,12.35,0,0,1-3.4,1.44,17.56,17.56,0,0,1-4.31.49c-3.14,0-5.56-.68-7.24-2a7,7,0,0,1-2.52-5.7,6.58,6.58,0,0,1,1.54-4.51,15.8,15.8,0,0,1,3.83-3.12,13.27,13.27,0,0,1-2-3.36,9.5,9.5,0,0,1-.63-3.44,6.68,6.68,0,0,1,.94-3.45,7.22,7.22,0,0,1,2.71-2.6,8.44,8.44,0,0,1,4.26-1,9.27,9.27,0,0,1,4.53,1,6.44,6.44,0,0,1,3.51,5.82,7,7,0,0,1-1.52,4.37,15.34,15.34,0,0,1-3.94,3.5l5.29,6a9.46,9.46,0,0,0,1.54-2.52,12,12,0,0,0,.8-3.34h5.08a13.72,13.72,0,0,1-1.29,5.43,12.59,12.59,0,0,1-2.85,4,3.49,3.49,0,0,0,1.48.56,17,17,0,0,0,2.13.1h.58V568a4.44,4.44,0,0,1-1.13.32A8.34,8.34,0,0,1,531.47,568.47ZM514,560.35a3.11,3.11,0,0,0,1,2.27,4.46,4.46,0,0,0,3.26,1,9.68,9.68,0,0,0,2.07-.21,11.32,11.32,0,0,0,1.82-.53l-5.7-6.35a6.27,6.27,0,0,0-1.76,1.59A3.67,3.67,0,0,0,514,560.35Zm2.55-13.86a4.41,4.41,0,0,0,.53,2.09,10.92,10.92,0,0,0,1.39,2,8,8,0,0,0,2.14-1.9,3.75,3.75,0,0,0,.77-2.24,2.42,2.42,0,0,0-.65-1.84,2.74,2.74,0,0,0-3.57.08A2.55,2.55,0,0,0,516.51,546.49Z"/><path class="cls-7" d="M560.39,558.13h6.11a11.69,11.69,0,0,1-3.59,7.73q-3.09,2.85-8.47,2.85c-4.2,0-7.38-1.28-9.51-3.85s-3.2-6.16-3.2-10.78a19.55,19.55,0,0,1,1.46-7.88,11.12,11.12,0,0,1,4.35-5.12,13.27,13.27,0,0,1,7.15-1.81,12.47,12.47,0,0,1,6,1.34,10,10,0,0,1,3.91,3.71,13,13,0,0,1,1.76,5.53h-6.1A6.6,6.6,0,0,0,558.3,546a5.45,5.45,0,0,0-3.86-1.42,5.6,5.6,0,0,0-4.83,2.4q-1.73,2.4-1.73,7c0,3.07.59,5.39,1.77,7a5.62,5.62,0,0,0,4.79,2.4,5.71,5.71,0,0,0,3.88-1.37A6.69,6.69,0,0,0,560.39,558.13Z"/><path class="cls-7" d="M575.11,568.14V539.85h6V552.8l10.21-12.95h7l-11.48,13.86,12.43,14.43h-7.71L581.13,555v13.16Z"/><circle class="cls-3" cx="301.96" cy="787.79" r="125"/><path class="cls-4" d="M242.79,840.09V820.77h4.11v19.32Z"/><path class="cls-4" d="M250.71,840.09V820.77h7.56c3.16,0,5.49.86,7,2.59a12.1,12.1,0,0,1,0,14.14c-1.53,1.73-3.86,2.59-7,2.59Zm7.34-15.74h-3.22V836.5h3.22a5,5,0,0,0,4-1.49,6.84,6.84,0,0,0,1.3-4.55,6.93,6.93,0,0,0-1.3-4.61A5,5,0,0,0,258.05,824.35Z"/><path class="cls-4" d="M285.49,840.09l-.25-1.57a4.42,4.42,0,0,1-1.64,1.32,6.23,6.23,0,0,1-2.73.53,5.41,5.41,0,0,1-3.66-1.15,3.94,3.94,0,0,1-1.33-3.14,3.77,3.77,0,0,1,2.45-3.83,10.11,10.11,0,0,1,2.45-.62l2.92-.39a2.18,2.18,0,0,0,1-.31.74.74,0,0,0,.24-.61,2,2,0,0,0-.53-1.33,2.4,2.4,0,0,0-1.85-.61,3.05,3.05,0,0,0-1.75.48,1.89,1.89,0,0,0-.83,1.43h-3.64a4.68,4.68,0,0,1,.77-2.48,5.24,5.24,0,0,1,2.17-1.82,7.92,7.92,0,0,1,3.47-.69,6.09,6.09,0,0,1,4.5,1.56,5.86,5.86,0,0,1,1.55,4.32v8.91Zm-.53-4.9v-1.48l-3.2.41a3.46,3.46,0,0,0-1.51.54,1.31,1.31,0,0,0-.53,1.12,1.38,1.38,0,0,0,.6,1.2,2.82,2.82,0,0,0,1.64.42,4.09,4.09,0,0,0,2.07-.53A1.81,1.81,0,0,0,285,835.19Z"/><path class="cls-4" d="M301.39,834.6h3.78a6.75,6.75,0,0,1-.92,2.82,5.91,5.91,0,0,1-2.21,2.14,7.09,7.09,0,0,1-3.53.81,7.62,7.62,0,0,1-3.95-.94,5.89,5.89,0,0,1-2.39-2.62,8.84,8.84,0,0,1-.8-3.89,9.22,9.22,0,0,1,.81-4,6.13,6.13,0,0,1,2.42-2.69,7.62,7.62,0,0,1,4-1,6.89,6.89,0,0,1,3.5.82,5.66,5.66,0,0,1,2.15,2.11,7.15,7.15,0,0,1,.88,2.84h-3.78a2.62,2.62,0,0,0-2.77-2.35,2.76,2.76,0,0,0-2.36,1.11,5.14,5.14,0,0,0-.81,3.09,4.91,4.91,0,0,0,.8,3,2.74,2.74,0,0,0,2.34,1.07,3,3,0,0,0,1.9-.58A2.82,2.82,0,0,0,301.39,834.6Z"/><path class="cls-4" d="M308.78,835.92v-7.17h-2.35v-3h1.49a1.27,1.27,0,0,0,.81-.19,1.16,1.16,0,0,0,.28-.79l.42-3.34h3.25v4.2H316v3.17H312.7v6.5a2,2,0,0,0,.41,1.42,2.16,2.16,0,0,0,1.55.42h1.57v3c-.35.06-.79.11-1.3.16s-1,.07-1.55.07a4.81,4.81,0,0,1-3.5-1.09A4.58,4.58,0,0,1,308.78,835.92Z"/><path class="cls-4" d="M325.14,840.37a8,8,0,0,1-4-1,6,6,0,0,1-2.42-2.65,9.09,9.09,0,0,1-.8-3.9,8.89,8.89,0,0,1,.82-3.94,6.12,6.12,0,0,1,2.43-2.66,8.88,8.88,0,0,1,8.05,0,6,6,0,0,1,2.41,2.63,9.95,9.95,0,0,1,0,7.84,6.1,6.1,0,0,1-2.43,2.67A7.61,7.61,0,0,1,325.14,840.37Zm0-3.42a2.84,2.84,0,0,0,2.42-1.09,5,5,0,0,0,.82-3.05,4.85,4.85,0,0,0-.82-3,3.26,3.26,0,0,0-4.85,0,5,5,0,0,0-.82,3.07,4.87,4.87,0,0,0,.82,3A2.89,2.89,0,0,0,325.14,837Z"/><path class="cls-4" d="M335.1,840.09V825.58h3.39l.31,2a4.53,4.53,0,0,1,1.54-1.57,4.33,4.33,0,0,1,2.35-.61,5.07,5.07,0,0,1,.66,0,4.19,4.19,0,0,1,.55.09v3.5h-1.1a4.41,4.41,0,0,0-2.82.77,3.16,3.16,0,0,0-1,2.6v7.64Z"/><path class="cls-4" d="M345.32,835.8h3.78a1.83,1.83,0,0,0,1,1.24,4,4,0,0,0,1.6.33,3.6,3.6,0,0,0,1.73-.37,1.24,1.24,0,0,0,.7-1.17,1,1,0,0,0-.53-1,4.43,4.43,0,0,0-1.65-.42l-1.2-.14a10.67,10.67,0,0,1-2.66-.66,3.85,3.85,0,0,1-1.8-1.37,4.4,4.4,0,0,1,1-5.7,7,7,0,0,1,4.4-1.26,6.76,6.76,0,0,1,4.34,1.26,4.71,4.71,0,0,1,1.76,3.34h-3.72a1.66,1.66,0,0,0-.9-1.28,3.48,3.48,0,0,0-1.45-.32,3,3,0,0,0-1.63.38,1.15,1.15,0,0,0-.58,1,1,1,0,0,0,.39.85,3.25,3.25,0,0,0,1.57.47l1.2.14a11.78,11.78,0,0,1,2.72.61,4.47,4.47,0,0,1,2,1.37,4,4,0,0,1,.74,2.53,4.14,4.14,0,0,1-1.62,3.38,7.32,7.32,0,0,1-4.71,1.32,7.46,7.46,0,0,1-4.57-1.23A4.58,4.58,0,0,1,345.32,835.8Z"/><path class="cls-4" d="M359.46,842.86l9-23.07h3.61l-9,23.07Z"/><path class="cls-4" d="M276.43,870.12a4.08,4.08,0,0,1-1.81,3.56,9.77,9.77,0,0,1-5.55,1.26q-3.65,0-5.23-1.11a3.27,3.27,0,0,1-1.58-2.73,2.35,2.35,0,0,1,.77-1.92,4.26,4.26,0,0,1,1.61-.85,3.24,3.24,0,0,1-1.05-.94,2.64,2.64,0,0,1-.43-1.58,2.69,2.69,0,0,1,.54-1.67,3.48,3.48,0,0,1,1.53-1.08,3.72,3.72,0,0,1-1.58-1.59,4.63,4.63,0,0,1-.49-2.13,4.38,4.38,0,0,1,1.52-3.44,6.66,6.66,0,0,1,4.53-1.35,9.34,9.34,0,0,1,2,.2,6.87,6.87,0,0,1,1.55.53h4v2.6L275,857.8a3.38,3.38,0,0,1,.39.81,3.52,3.52,0,0,1,.14,1,3.91,3.91,0,0,1-.63,2.12,4.44,4.44,0,0,1-2,1.6,8.7,8.7,0,0,1-3.59.62,12.06,12.06,0,0,1-1.87-.14,1.48,1.48,0,0,0-.68.49,1,1,0,0,0-.19.57q0,1,1.23,1h3.61a5.5,5.5,0,0,1,3.78,1.15A4,4,0,0,1,276.43,870.12Zm-5.8-1.29h-2.94a1.9,1.9,0,0,0-1,.35,1.21,1.21,0,0,0-.54,1.08,1.5,1.5,0,0,0,.75,1.23,4.11,4.11,0,0,0,2.39.54,4.5,4.5,0,0,0,2.51-.54,1.56,1.56,0,0,0,.77-1.31,1.12,1.12,0,0,0-.53-1A2.61,2.61,0,0,0,270.63,868.83ZM267,859.31a1.58,1.58,0,0,0,.58,1.29,2.82,2.82,0,0,0,1.8.48,2.87,2.87,0,0,0,1.82-.48,1.58,1.58,0,0,0,.58-1.29,1.63,1.63,0,0,0-.58-1.31,2.75,2.75,0,0,0-1.82-.51,2.7,2.7,0,0,0-1.8.51A1.63,1.63,0,0,0,267,859.31Z"/><path class="cls-4" d="M279.09,869.34V854.83h3.39l.31,2a4.45,4.45,0,0,1,1.54-1.57,4.31,4.31,0,0,1,2.35-.62,5.13,5.13,0,0,1,.65,0,3.67,3.67,0,0,1,.55.09v3.5h-1.09a4.46,4.46,0,0,0-2.83.77,3.18,3.18,0,0,0-.95,2.59v7.65Z"/><path class="cls-4" d="M296.37,869.62a8,8,0,0,1-4-1,6,6,0,0,1-2.42-2.65,9.95,9.95,0,0,1,0-7.84,6.15,6.15,0,0,1,2.44-2.66,7.76,7.76,0,0,1,4-1,7.87,7.87,0,0,1,4,1,6,6,0,0,1,2.41,2.64,9.05,9.05,0,0,1,.8,3.92,8.92,8.92,0,0,1-.82,3.92,6,6,0,0,1-2.42,2.67A7.71,7.71,0,0,1,296.37,869.62Zm0-3.42a2.84,2.84,0,0,0,2.42-1.09,5,5,0,0,0,.82-3.05,4.85,4.85,0,0,0-.82-3,3.26,3.26,0,0,0-4.85,0,5,5,0,0,0-.82,3.06,4.85,4.85,0,0,0,.82,3A2.87,2.87,0,0,0,296.37,866.2Z"/><path class="cls-4" d="M306.19,864.35v-9.52h3.92v8.82c0,1.66.75,2.49,2.24,2.49a3.05,3.05,0,0,0,1.92-.65,2.24,2.24,0,0,0,.85-1.89v-8.77H319v14.51h-3.38l-.28-1.82a4.55,4.55,0,0,1-1.65,1.51,5.36,5.36,0,0,1-2.61.59,4.91,4.91,0,0,1-3.58-1.31A5.24,5.24,0,0,1,306.19,864.35Z"/><path class="cls-4" d="M322.4,874.66V854.83h3.39l.31,1.85a4.42,4.42,0,0,1,1.79-1.57,6,6,0,0,1,2.61-.56,5.52,5.52,0,0,1,3.31,1,6.22,6.22,0,0,1,2.08,2.66,10.71,10.71,0,0,1,0,7.72,6.24,6.24,0,0,1-2.11,2.71,5.7,5.7,0,0,1-3.43,1,4.82,4.82,0,0,1-4-1.77v6.81Zm3.92-13.95v2.86a2.25,2.25,0,0,0,.94,2,3.67,3.67,0,0,0,2.09.63,2.81,2.81,0,0,0,2.42-1.12,5.83,5.83,0,0,0,0-6,2.77,2.77,0,0,0-2.4-1.13,3.84,3.84,0,0,0-1.46.29,2.76,2.76,0,0,0-1.15.9A2.52,2.52,0,0,0,326.32,860.71Z"/><path class="cls-4" d="M338.36,865.05h3.78a1.83,1.83,0,0,0,1,1.24,4,4,0,0,0,1.6.33,3.49,3.49,0,0,0,1.73-.38,1.23,1.23,0,0,0,.7-1.16,1,1,0,0,0-.53-1,4.43,4.43,0,0,0-1.65-.42l-1.2-.14a10.67,10.67,0,0,1-2.66-.66,3.85,3.85,0,0,1-1.8-1.37,4.12,4.12,0,0,1-.64-2.39,4,4,0,0,1,1.63-3.31,7,7,0,0,1,4.39-1.26,6.76,6.76,0,0,1,4.34,1.26,4.68,4.68,0,0,1,1.77,3.33H347.1a1.67,1.67,0,0,0-.89-1.27,3.56,3.56,0,0,0-1.46-.32,3,3,0,0,0-1.63.38,1.15,1.15,0,0,0-.58,1,1,1,0,0,0,.39.85,3.16,3.16,0,0,0,1.57.46l1.2.15a11.78,11.78,0,0,1,2.72.61,4.41,4.41,0,0,1,2,1.37,4,4,0,0,1,.74,2.52,4.18,4.18,0,0,1-1.62,3.39,7.3,7.3,0,0,1-4.71,1.32,7.39,7.39,0,0,1-4.57-1.24A4.58,4.58,0,0,1,338.36,865.05Z"/><circle class="cls-3" cx="722.04" cy="785.79" r="125"/><path class="cls-4" d="M667.3,840.09V820.77h4.12v19.32Z"/><path class="cls-4" d="M675.24,840.09V825.58h3.39l.28,1.83a4.48,4.48,0,0,1,1.67-1.52,5.45,5.45,0,0,1,2.64-.59,5,5,0,0,1,3.63,1.31,5.26,5.26,0,0,1,1.36,4v9.52h-3.92v-8.82c0-1.64-.77-2.47-2.3-2.47a3.21,3.21,0,0,0-2,.65,2.19,2.19,0,0,0-.87,1.88v8.76Z"/><path class="cls-4" d="M692.56,835.92v-7.17h-2.35v-3h1.48a1.25,1.25,0,0,0,.81-.19,1.15,1.15,0,0,0,.29-.79l.42-3.34h3.24v4.2h3.28v3.17h-3.25v6.5a2,2,0,0,0,.41,1.42,2.16,2.16,0,0,0,1.55.42H700v3c-.36.06-.79.11-1.3.16s-1,.07-1.56.07a4.84,4.84,0,0,1-3.5-1.09A4.62,4.62,0,0,1,692.56,835.92Z"/><path class="cls-4" d="M715.7,835.69a4.71,4.71,0,0,1-1,2.28,5.68,5.68,0,0,1-2.24,1.74,8.2,8.2,0,0,1-3.47.66,7.61,7.61,0,0,1-4-.94,5.91,5.91,0,0,1-2.37-2.62,9,9,0,0,1-.78-3.86,9.18,9.18,0,0,1,.81-4,6.19,6.19,0,0,1,2.41-2.7,7.29,7.29,0,0,1,3.92-1,7,7,0,0,1,3.75.94,5.89,5.89,0,0,1,2.27,2.55,8.55,8.55,0,0,1,.76,3.66q0,.36,0,.78a6.32,6.32,0,0,1-.09.73h-9.8a4.6,4.6,0,0,0,1,2.46,2.79,2.79,0,0,0,2.25.9,3.58,3.58,0,0,0,1.8-.42,2.18,2.18,0,0,0,1-1.21Zm-6.55-7.47c-1.73,0-2.79,1-3.16,3h5.15a.87.87,0,0,0,.57-.14.59.59,0,0,0,.16-.48,2.44,2.44,0,0,0-.7-1.65A2.63,2.63,0,0,0,709.15,828.22Z"/><path class="cls-4" d="M731.82,840.87a4.08,4.08,0,0,1-1.81,3.56,9.77,9.77,0,0,1-5.55,1.26q-3.65,0-5.22-1.11a3.23,3.23,0,0,1-1.59-2.73,2.35,2.35,0,0,1,.77-1.92,4.33,4.33,0,0,1,1.61-.85,3.13,3.13,0,0,1-1-.94,2.64,2.64,0,0,1-.43-1.58,2.71,2.71,0,0,1,.54-1.67,3.39,3.39,0,0,1,1.53-1.07,3.8,3.8,0,0,1-1.58-1.6,4.63,4.63,0,0,1-.49-2.13,4.36,4.36,0,0,1,1.53-3.44,6.62,6.62,0,0,1,4.52-1.35,9.34,9.34,0,0,1,2,.2,6.7,6.7,0,0,1,1.55.53h4v2.61l-1.85-.09a3.26,3.26,0,0,1,.39.82,3.4,3.4,0,0,1,.14,1,3.91,3.91,0,0,1-.63,2.12,4.45,4.45,0,0,1-2,1.61,8.88,8.88,0,0,1-3.59.61,11,11,0,0,1-1.87-.14,1.44,1.44,0,0,0-.67.49,1,1,0,0,0-.2.58c0,.63.41,1,1.23,1h3.61a5.5,5.5,0,0,1,3.78,1.15A4,4,0,0,1,731.82,840.87ZM726,839.58h-2.95a1.9,1.9,0,0,0-1,.35,1.2,1.2,0,0,0-.53,1.08,1.51,1.51,0,0,0,.74,1.24,4.2,4.2,0,0,0,2.39.53,4.57,4.57,0,0,0,2.51-.53,1.59,1.59,0,0,0,.77-1.32,1.12,1.12,0,0,0-.53-1A2.6,2.6,0,0,0,726,839.58Zm-3.67-9.52a1.53,1.53,0,0,0,.59,1.29,2.77,2.77,0,0,0,1.79.48,2.85,2.85,0,0,0,1.82-.48,1.56,1.56,0,0,0,.59-1.29,1.64,1.64,0,0,0-.59-1.31,2.73,2.73,0,0,0-1.82-.5,2.66,2.66,0,0,0-1.79.5A1.61,1.61,0,0,0,722.36,830.06Z"/><path class="cls-4" d="M734.72,840.09V825.58h3.39l.31,2a4.45,4.45,0,0,1,1.54-1.57,4.31,4.31,0,0,1,2.35-.61,5.29,5.29,0,0,1,.66,0,3.74,3.74,0,0,1,.54.09v3.5h-1.09a4.46,4.46,0,0,0-2.83.77,3.19,3.19,0,0,0-1,2.6v7.64Z"/><path class="cls-4" d="M754.87,840.09l-.25-1.57a4.42,4.42,0,0,1-1.64,1.32,6.23,6.23,0,0,1-2.73.53,5.41,5.41,0,0,1-3.66-1.15,3.94,3.94,0,0,1-1.33-3.14,3.77,3.77,0,0,1,2.45-3.83,10.11,10.11,0,0,1,2.45-.62l2.92-.39a2.18,2.18,0,0,0,1-.31.74.74,0,0,0,.24-.61,2,2,0,0,0-.53-1.33,2.4,2.4,0,0,0-1.85-.61,3.05,3.05,0,0,0-1.75.48,1.89,1.89,0,0,0-.83,1.43h-3.64a4.68,4.68,0,0,1,.77-2.48,5.24,5.24,0,0,1,2.17-1.82,7.92,7.92,0,0,1,3.47-.69,6.09,6.09,0,0,1,4.5,1.56,5.86,5.86,0,0,1,1.55,4.32v8.91Zm-.53-4.9v-1.48l-3.2.41a3.46,3.46,0,0,0-1.51.54,1.31,1.31,0,0,0-.53,1.12,1.38,1.38,0,0,0,.6,1.2,2.82,2.82,0,0,0,1.64.42,4.09,4.09,0,0,0,2.07-.53A1.81,1.81,0,0,0,754.34,835.19Z"/><path class="cls-4" d="M762.53,835.92v-7.17h-2.36v-3h1.49a1.27,1.27,0,0,0,.81-.19,1.16,1.16,0,0,0,.28-.79l.42-3.34h3.25v4.2h3.28v3.17h-3.25v6.5a2,2,0,0,0,.4,1.42,2.17,2.17,0,0,0,1.56.42H770v3c-.36.06-.79.11-1.31.16s-1,.07-1.55.07a4.83,4.83,0,0,1-3.5-1.09A4.57,4.57,0,0,1,762.53,835.92Z"/><path class="cls-4" d="M785.67,835.69a4.8,4.8,0,0,1-1,2.28,5.75,5.75,0,0,1-2.24,1.74,8.23,8.23,0,0,1-3.47.66,7.59,7.59,0,0,1-4-.94,5.79,5.79,0,0,1-2.37-2.62,9,9,0,0,1-.78-3.86,9.18,9.18,0,0,1,.81-4,6.13,6.13,0,0,1,2.41-2.7,7.29,7.29,0,0,1,3.92-1,7,7,0,0,1,3.75.94,6,6,0,0,1,2.27,2.55,8.55,8.55,0,0,1,.75,3.66q0,.36,0,.78a4.79,4.79,0,0,1-.08.73h-9.8a4.52,4.52,0,0,0,1,2.46,2.79,2.79,0,0,0,2.25.9,3.51,3.51,0,0,0,1.79-.42,2.19,2.19,0,0,0,1-1.21Zm-6.55-7.47c-1.74,0-2.79,1-3.17,3h5.16a.87.87,0,0,0,.57-.14.63.63,0,0,0,.15-.48,2.39,2.39,0,0,0-.7-1.65A2.6,2.6,0,0,0,779.12,828.22Z"/><path class="cls-4" d="M666,865.05h3.78a1.81,1.81,0,0,0,1,1.24,3.9,3.9,0,0,0,1.59.33,3.55,3.55,0,0,0,1.74-.38,1.25,1.25,0,0,0,.7-1.16,1.06,1.06,0,0,0-.53-1,4.54,4.54,0,0,0-1.66-.42l-1.2-.14a10.78,10.78,0,0,1-2.66-.66,3.82,3.82,0,0,1-1.79-1.37,4,4,0,0,1-.65-2.39,4,4,0,0,1,1.63-3.31,7,7,0,0,1,4.39-1.26,6.74,6.74,0,0,1,4.34,1.26,4.65,4.65,0,0,1,1.77,3.33h-3.73a1.67,1.67,0,0,0-.89-1.27,3.52,3.52,0,0,0-1.46-.32,2.9,2.9,0,0,0-1.62.38,1.16,1.16,0,0,0-.59,1,1,1,0,0,0,.39.85,3.2,3.2,0,0,0,1.57.46l1.2.15a11.66,11.66,0,0,1,2.72.61,4.41,4.41,0,0,1,2,1.37,3.9,3.9,0,0,1,.75,2.52,4.19,4.19,0,0,1-1.63,3.39,7.29,7.29,0,0,1-4.7,1.32,7.42,7.42,0,0,1-4.58-1.24A4.6,4.6,0,0,1,666,865.05Z"/><path class="cls-4" d="M688.16,869.62a7.91,7.91,0,0,1-4-1,6,6,0,0,1-2.42-2.65,9.95,9.95,0,0,1,0-7.84,6.09,6.09,0,0,1,2.44-2.66,7.74,7.74,0,0,1,4-1,7.88,7.88,0,0,1,4.05,1,6.09,6.09,0,0,1,2.41,2.64,9.89,9.89,0,0,1,0,7.84,6.08,6.08,0,0,1-2.42,2.67A7.72,7.72,0,0,1,688.16,869.62Zm0-3.42a2.83,2.83,0,0,0,2.42-1.09,4.91,4.91,0,0,0,.83-3.05,4.79,4.79,0,0,0-.83-3,3.25,3.25,0,0,0-4.84,0,5,5,0,0,0-.82,3.06,4.85,4.85,0,0,0,.82,3A2.86,2.86,0,0,0,688.16,866.2Z"/><path class="cls-4" d="M698.37,869.34v-20h3.92v20Z"/><path class="cls-4" d="M705.75,864.35v-9.52h3.92v8.82c0,1.66.75,2.49,2.24,2.49a3.05,3.05,0,0,0,1.92-.65,2.24,2.24,0,0,0,.85-1.89v-8.77h3.92v14.51h-3.39l-.28-1.82a4.47,4.47,0,0,1-1.65,1.51,5.32,5.32,0,0,1-2.6.59,5,5,0,0,1-3.59-1.31A5.28,5.28,0,0,1,705.75,864.35Z"/><path class="cls-4" d="M723.1,865.17V858h-2.35v-3h1.48a1.33,1.33,0,0,0,.81-.19,1.12,1.12,0,0,0,.28-.8l.42-3.33H727v4.2h3.28V858H727v6.49a2,2,0,0,0,.4,1.43,2.19,2.19,0,0,0,1.56.42h1.57v3c-.36.06-.79.11-1.31.16s-1,.07-1.55.07a4.83,4.83,0,0,1-3.5-1.09A4.57,4.57,0,0,1,723.1,865.17Z"/><path class="cls-4" d="M733.39,853v-3.64h4.14V853Zm.11,16.38V854.83h3.92v14.51Z"/><path class="cls-4" d="M747.63,869.62a7.88,7.88,0,0,1-4-1,5.91,5.91,0,0,1-2.42-2.65,9.95,9.95,0,0,1,0-7.84,6,6,0,0,1,2.44-2.66,7.72,7.72,0,0,1,4-1,7.93,7.93,0,0,1,4,1,6,6,0,0,1,2.4,2.64,8.91,8.91,0,0,1,.8,3.92,9.06,9.06,0,0,1-.81,3.92,6.08,6.08,0,0,1-2.42,2.67A7.74,7.74,0,0,1,747.63,869.62Zm0-3.42a2.84,2.84,0,0,0,2.42-1.09,5,5,0,0,0,.83-3.05,4.85,4.85,0,0,0-.83-3,3.25,3.25,0,0,0-4.84,0,5,5,0,0,0-.83,3.06,4.85,4.85,0,0,0,.83,3A2.86,2.86,0,0,0,747.63,866.2Z"/><path class="cls-4" d="M757.84,869.34V854.83h3.39l.27,1.82a4.54,4.54,0,0,1,1.67-1.51,5.49,5.49,0,0,1,2.65-.59,5,5,0,0,1,3.62,1.3,5.25,5.25,0,0,1,1.36,4v9.52h-3.92v-8.82c0-1.64-.76-2.47-2.3-2.47a3.23,3.23,0,0,0-2,.65,2.2,2.2,0,0,0-.86,1.87v8.77Z"/><path class="cls-4" d="M773.31,865.05h3.78a1.81,1.81,0,0,0,1,1.24,3.9,3.9,0,0,0,1.59.33,3.55,3.55,0,0,0,1.74-.38,1.25,1.25,0,0,0,.7-1.16,1.06,1.06,0,0,0-.53-1,4.54,4.54,0,0,0-1.66-.42l-1.2-.14a10.78,10.78,0,0,1-2.66-.66,3.82,3.82,0,0,1-1.79-1.37,4,4,0,0,1-.65-2.39,4,4,0,0,1,1.63-3.31,7,7,0,0,1,4.39-1.26,6.74,6.74,0,0,1,4.34,1.26,4.65,4.65,0,0,1,1.77,3.33H782a1.67,1.67,0,0,0-.89-1.27,3.52,3.52,0,0,0-1.46-.32,2.9,2.9,0,0,0-1.62.38,1.16,1.16,0,0,0-.59,1,1,1,0,0,0,.39.85,3.2,3.2,0,0,0,1.57.46l1.2.15a11.66,11.66,0,0,1,2.72.61,4.41,4.41,0,0,1,2,1.37,3.9,3.9,0,0,1,.75,2.52,4.19,4.19,0,0,1-1.63,3.39,7.29,7.29,0,0,1-4.7,1.32,7.42,7.42,0,0,1-4.58-1.24A4.6,4.6,0,0,1,773.31,865.05Z"/><path class="cls-4" d="M718,776.84a2.84,2.84,0,0,1-1.51-.43l-6.89-3.81-.07-.05a2.89,2.89,0,0,1-1.38-2.83l.94-7.06a22,22,0,0,1-1.46-2.45l-6.6-2.46a2.9,2.9,0,0,1-1.87-2.69l-.12-7.93a2.94,2.94,0,0,1,1.75-2.69l0,0,6.49-2.71c.2-.42.4-.82.63-1.22s.46-.78.73-1.19l-1.19-7a2.94,2.94,0,0,1,1.38-3l6.77-4.06a2.87,2.87,0,0,1,3.18.05l.12.08,5.59,4.3a21.31,21.31,0,0,1,2.88-.06l5.43-4.46.15-.11a2.87,2.87,0,0,1,3.14-.09l6.93,3.81.07.05a2.9,2.9,0,0,1,1.39,2.84l-.92,6.85a22.47,22.47,0,0,1,1.6,2.65l6.43,2.4a2.89,2.89,0,0,1,1.88,2.69l.15,7.92a2.93,2.93,0,0,1-1.75,2.7l-6.34,2.6c-.23.49-.47,1-.72,1.42s-.56.94-.86,1.38l1.14,6.76a2.85,2.85,0,0,1-1.38,3l-6.73,4a2.89,2.89,0,0,1-3.19,0l-.11-.08-5.43-4.2a19.37,19.37,0,0,1-3.14,0l-5.33,4.46a1.33,1.33,0,0,1-.19.14A2.84,2.84,0,0,1,718,776.84Zm-5.24-7.64,5,2.8,5-4.16.07-.06a2.91,2.91,0,0,1,2-.58,15.93,15.93,0,0,0,3.52,0,3,3,0,0,1,2,.51l.08.06,5.06,3.9,4.93-2.95-1.07-6.33a2.86,2.86,0,0,1,.52-2.18c.34-.48.67-1,1-1.51a15.65,15.65,0,0,0,.77-1.59,2.84,2.84,0,0,1,1.57-1.55l5.87-2.4-.11-5.75-6-2.24a2.8,2.8,0,0,1-1.61-1.49,17.09,17.09,0,0,0-1.81-3,2.8,2.8,0,0,1-.55-2.15l.86-6.33-5.1-2.81-5,4.14-.07.05a2.89,2.89,0,0,1-2,.58,16.9,16.9,0,0,0-3.25.08,2.83,2.83,0,0,1-2-.52.18.18,0,0,1-.07-.05l-5.22-4-5,3,1.11,6.57a2.92,2.92,0,0,1-.52,2.19,13.45,13.45,0,0,0-.83,1.3c-.26.46-.51,1-.71,1.44a2.87,2.87,0,0,1-1.56,1.5l-6,2.53.08,5.76,6.17,2.3a2.8,2.8,0,0,1,1.61,1.49,16.15,16.15,0,0,0,1.68,2.82,2.8,2.8,0,0,1,.53,2.13Zm16.2,2.47h0Zm11.72-1.9s0,.06,0,.1Zm.77-1.62,0,0Zm-32-5a.61.61,0,0,0,.07.1Zm34.15-.35,0,0Zm-35.4-2.39.1,0Zm36.76-.7h0Zm-37.64-.13v0Zm38.52-.78a.14.14,0,0,1,0,.06A.14.14,0,0,0,745.8,758.82ZM703.61,755v0ZM749,746.33v0Zm-3.53-4.57,0,0Zm-37.58-.29h0Zm36.64-.54.08,0ZM709,738.76l0,0Zm34.12-.83,0,.06Zm-19.29-8.16h0Zm4.12-.1h0Z"/><path class="cls-5" d="M723.52,759a2.24,2.24,0,0,1-1.57-.64l-4.86-4.71a2.25,2.25,0,1,1,3.14-3.23l3.15,3.06,8.85-10.21a2.25,2.25,0,0,1,3.4,2.95l-10.41,12a2.23,2.23,0,0,1-1.6.77Z"/><path class="cls-4" d="M726.3,808.62a2.24,2.24,0,0,1-2.25-2.25V784.06a2.25,2.25,0,0,1,4.5,0v22.31A2.25,2.25,0,0,1,726.3,808.62Z"/><path class="cls-4" d="M726.3,719.58a2.25,2.25,0,0,1-2.25-2.25V695a2.25,2.25,0,0,1,4.5,0v22.31A2.25,2.25,0,0,1,726.3,719.58Z"/><path class="cls-4" d="M735,706a2.28,2.28,0,0,1-1.59-.65l-7.3-7.3-7,7a2.25,2.25,0,1,1-3.18-3.19l8.56-8.56a2.25,2.25,0,0,1,3.18,0l8.89,8.89A2.25,2.25,0,0,1,735,706Z"/><path class="cls-4" d="M726.46,808.79a2.25,2.25,0,0,1-1.59-.66L716,799.24a2.25,2.25,0,1,1,3.18-3.18l7.3,7.3,7-7a2.25,2.25,0,0,1,3.18,3.18l-8.56,8.56A2.25,2.25,0,0,1,726.46,808.79Z"/><path class="cls-4" d="M691.94,753H669.63a2.25,2.25,0,1,1,0-4.5h22.31a2.25,2.25,0,0,1,0,4.5Z"/><path class="cls-4" d="M783.3,753H761a2.25,2.25,0,0,1,0-4.5H783.3a2.25,2.25,0,0,1,0,4.5Z"/><path class="cls-4" d="M774.57,761.67a2.25,2.25,0,0,1-1.59-3.84l7.3-7.3-7-7a2.25,2.25,0,0,1,3.18-3.18l8.56,8.56a2.25,2.25,0,0,1,0,3.18L776.16,761A2.25,2.25,0,0,1,774.57,761.67Z"/><path class="cls-4" d="M678,761.67a2.25,2.25,0,0,1-1.59-.66l-8.56-8.56a2.25,2.25,0,0,1,0-3.18l8.89-8.89a2.25,2.25,0,0,1,3.18,3.18l-7.3,7.3,7,7a2.25,2.25,0,0,1-1.59,3.84Z"/><path class="cls-2" d="M255.07,748.29a2.41,2.41,0,0,0-2.4,2.56l3,48.46a2.4,2.4,0,0,0,2.39,2.26h87.73a2.41,2.41,0,0,0,2.4-2.26l3-48.47a2.34,2.34,0,0,0-.64-1.79,2.38,2.38,0,0,0-1.75-.76Z"/><path class="cls-4" d="M261.25,738.19a2.25,2.25,0,0,1-1.55-.62,2.28,2.28,0,0,1-.11-3.22c.32-.34,7.31-7.68,17-8.7.31-12.29,1.83-34.88,24.88-39.56a2.28,2.28,0,0,1,.91,4.47c-20.56,4.17-21,25.43-21.27,36.84v.46a2.28,2.28,0,0,1-2.28,2.23c-8.91,0-15.86,7.3-15.93,7.37A2.29,2.29,0,0,1,261.25,738.19Z"/><path class="cls-4" d="M312.62,738.13a2.28,2.28,0,0,1-1.94-3.47c.06-.1,5.93-10,2.68-20.9a43.58,43.58,0,0,1-10.12,2.35h-2.57a43.44,43.44,0,0,1-10.11-2.35c-3.25,10.94,2.61,20.8,2.67,20.9a2.28,2.28,0,1,1-3.89,2.38c-.32-.53-8-13.28-2.2-27.26a2.25,2.25,0,0,1,1.35-1.28,2.28,2.28,0,0,1,1.86.15c3.76,2.08,9.81,2.81,10.67,2.91h1.88c.86-.1,6.9-.83,10.67-2.91a2.29,2.29,0,0,1,3.21,1.13c5.77,14-1.88,26.73-2.21,27.26A2.29,2.29,0,0,1,312.62,738.13Z"/><path class="cls-4" d="M342.66,738.19a2.25,2.25,0,0,1-1.66-.73c-.07-.07-7.07-7.37-15.94-7.37a2.27,2.27,0,0,1-2.27-2.23v-.45c-.25-11.42-.71-32.68-21.28-36.85a2.28,2.28,0,1,1,.91-4.47c23.06,4.68,24.57,27.27,24.89,39.56,9.72,1,16.71,8.36,17,8.7a2.28,2.28,0,0,1-1.66,3.84Z"/><path class="cls-4" d="M303.06,779.46c-5.86,0-10.64-5.15-10.64-11.49s4.78-11.5,10.64-11.5,10.64,5.16,10.64,11.5S308.93,779.46,303.06,779.46Zm0-18.43c-3.35,0-6.08,3.11-6.08,6.94s2.73,6.93,6.08,6.93,6.08-3.11,6.08-6.93S306.41,761,303.06,761Z"/><path class="cls-4" d="M302.45,792.06a51.45,51.45,0,0,1-12.92-1.57,5.78,5.78,0,0,1-4.25-6.39,14.26,14.26,0,0,1,9.7-11.87,2.28,2.28,0,1,1,1.54,4.29,9.72,9.72,0,0,0-6.72,8.2,1.22,1.22,0,0,0,.88,1.36,46.93,46.93,0,0,0,11.77,1.42,59.42,59.42,0,0,0,12.94-1.45,1.2,1.2,0,0,0,.93-1.36,9.73,9.73,0,0,0-6.72-8.18,2.28,2.28,0,1,1,1.54-4.29,14.28,14.28,0,0,1,9.7,11.83,5.75,5.75,0,0,1-4.42,6.44A63.83,63.83,0,0,1,302.45,792.06Z"/><path class="cls-3" d="M303.06,761c3.35,0,6.08,3.11,6.08,6.94s-2.73,6.93-6.08,6.93S297,771.79,297,768,299.71,761,303.06,761Zm12.33,25a59.42,59.42,0,0,1-12.94,1.45,46.93,46.93,0,0,1-11.77-1.42,1.22,1.22,0,0,1-.88-1.36,9.71,9.71,0,0,1,6.33-8.05,10,10,0,0,0,13.86,0,9.7,9.7,0,0,1,6.33,8A1.2,1.2,0,0,1,315.39,786.05Z"/><path class="cls-4" d="M353.92,745.93a7,7,0,0,0-5.07-2.2H255.07a7,7,0,0,0-6.95,7.4l3,48.47a7,7,0,0,0,6.94,6.53h87.73a7,7,0,0,0,6.95-6.53l3-48.47A7,7,0,0,0,353.92,745.93Zm-5.7,53.38a2.41,2.41,0,0,1-2.4,2.26H258.09a2.4,2.4,0,0,1-2.39-2.26l-3-48.46a2.41,2.41,0,0,1,2.4-2.56h93.78a2.38,2.38,0,0,1,1.75.76,2.34,2.34,0,0,1,.64,1.79Z"/><g id="reduce_cyber_security_threats"><path class="cls-4" d="M512.48,221.28c-4.27,0-17.94-5-30.79-19.75-19.95-22.95-24.69-54.05-25.16-76.1A6.39,6.39,0,0,1,462.7,119a95.39,95.39,0,0,0,35.5-8.28,66.49,66.49,0,0,0,12.87-7.43,2.24,2.24,0,0,1,2.82,0,66.72,66.72,0,0,0,12.86,7.42A95.57,95.57,0,0,0,562.27,119h0a6.38,6.38,0,0,1,6.15,6.45c-.46,22-5.2,53.15-25.16,76.1C530.41,216.31,516.74,221.28,512.48,221.28Zm0-113.45c-5,3.53-22.61,14.59-49.6,15.65a1.86,1.86,0,0,0-1.85,1.85c1.56,73.29,45.28,91.45,51.45,91.45s49.9-18.16,51.45-91.45a1.87,1.87,0,0,0-1.84-1.85C535.09,122.42,517.45,111.36,512.48,107.83Z"/><path class="cls-5" d="M506.72,176.75a2.25,2.25,0,0,1-1.57-.63l-10.09-9.79a2.25,2.25,0,0,1,3.13-3.23l8.39,8.13,20.05-23.15A2.25,2.25,0,1,1,530,151L508.42,176a2.27,2.27,0,0,1-1.6.77Z"/></g><path class="cls-2" d="M776,388.75V347a8.27,8.27,0,0,1,8.27-8.27h97.46A8.27,8.27,0,0,1,890,347v41.7H850.81l-5.53-8.23-9.8,14.59-13.8-29.8-11.2,31.62L805,388.74Z"/><g id="monitoring-and-diagnostics"><path class="cls-5" d="M839.14,447.48a2.24,2.24,0,0,1-1.56-.62l-10.84-10.39a2.25,2.25,0,1,1,3.11-3.25l10.84,10.39a2.25,2.25,0,0,1-1.55,3.87Z"/><path class="cls-5" d="M816.13,441.88c-10.7,0-19.4-8.37-19.4-18.66s8.7-18.67,19.4-18.67,19.39,8.38,19.39,18.67S826.82,441.88,816.13,441.88Zm0-32.83c-8.22,0-14.9,6.36-14.9,14.17s6.68,14.16,14.9,14.16S831,431,831,423.22,824.34,409.05,816.13,409.05Z"/><path class="cls-4" d="M811.22,399.58a3.12,3.12,0,0,1-2.66-1.49l-4.33-7.1H776a2.25,2.25,0,0,1,0-4.5h29a3.13,3.13,0,0,1,2.65,1.49l3.12,5.12,8.74-28.46a3.1,3.1,0,0,1,5.89-.13L835,391.36l6.82-11.94a3.07,3.07,0,0,1,2.65-1.57,3.11,3.11,0,0,1,2.7,1.48l4.39,7.16H890a2.25,2.25,0,0,1,0,4.5H850.81a3.1,3.1,0,0,1-2.64-1.48l-3.58-5.82-7.15,12.53a3.11,3.11,0,0,1-5.63-.5L822.6,370l-8.41,27.41a3.12,3.12,0,0,1-2.59,2.17ZM805,391Z"/><path class="cls-4" d="M881.73,425.29H844.4a2.25,2.25,0,0,1,0-4.5h37.33a6,6,0,0,0,6-6V347a6,6,0,0,0-6-6H784.27a6,6,0,0,0-6,6v67.73c0,3.33,2.71,6,5,6h5.19a2.25,2.25,0,0,1,0,4.5h-5.19c-5,0-9.46-5-9.46-10.52V347a10.53,10.53,0,0,1,10.52-10.52h97.46A10.53,10.53,0,0,1,892.25,347v67.73A10.53,10.53,0,0,1,881.73,425.29Z"/></g></g></svg>