<svg id="Layer_2" data-name="Layer 2" xmlns="http://www.w3.org/2000/svg" viewBox="0 0 1962 1027"><defs><style>.cls-1{fill:#f0f3f7;}.cls-2{fill:#0c1724;}.cls-3{fill:#fff;}.cls-4{fill:#969daa;}.cls-5{fill:#d5dce5;}.cls-6{fill:#363c44;}.cls-7{fill:#ed0080;}</style></defs><rect class="cls-1" y="1" width="1962" height="1025"/><path class="cls-2" d="M827.12,81.55V48.44h7.58l9.79,23.13,9.79-23.13h7.44V81.55h-6.81V60.34l-8.07,19H842l-8.07-19V81.55Z"/><path class="cls-2" d="M868.25,81.55V48.44h7V81.55Z"/><path class="cls-2" d="M889.75,81.55v-27H880.2V48.44h26.15v6.14H896.8v27Z"/><path class="cls-2" d="M911.25,81.55V48.44h13.53a15.43,15.43,0,0,1,6.77,1.27,8.46,8.46,0,0,1,3.81,3.5,10.45,10.45,0,0,1,1.23,5.12,9.07,9.07,0,0,1-1.37,5.18,8.13,8.13,0,0,1-3.63,3,5.78,5.78,0,0,1,2.86,2,10.12,10.12,0,0,1,1.66,3.89l2.11,9.21h-7.39l-1.63-7.77a5.07,5.07,0,0,0-1.83-3.41,7.08,7.08,0,0,0-3.74-.82h-5.42v12ZM923.72,54.1h-5.51v9.79h5.47A7.11,7.11,0,0,0,928,62.74,4.33,4.33,0,0,0,929.53,59,4.35,4.35,0,0,0,928,55.28,6.85,6.85,0,0,0,923.72,54.1Z"/><path class="cls-2" d="M943.11,81.55V48.44h22.22v6.05H950.07v7.15h13.87v6H950.07v7.87h15.69v6Z"/><path class="cls-2" d="M981.12,90.67v-34h5.81l.53,3.17a7.33,7.33,0,0,1,3.07-2.69,10,10,0,0,1,4.46-1,9.48,9.48,0,0,1,5.69,1.68,10.62,10.62,0,0,1,3.55,4.56,18.31,18.31,0,0,1,0,13.22,10.74,10.74,0,0,1-3.62,4.66A9.85,9.85,0,0,1,994.7,82a8.26,8.26,0,0,1-6.86-3V90.67Zm6.72-23.9v4.9a3.85,3.85,0,0,0,1.61,3.43A6.25,6.25,0,0,0,993,76.18a4.82,4.82,0,0,0,4.15-1.92,8.42,8.42,0,0,0,1.42-5.14A8.65,8.65,0,0,0,997.2,64a4.77,4.77,0,0,0-4.13-1.94,6.52,6.52,0,0,0-2.5.5,4.64,4.64,0,0,0-2,1.54A4.28,4.28,0,0,0,987.84,66.77Z"/><path class="cls-2" d="M1010.11,81.55V47.24h6.71v12a7.77,7.77,0,0,1,2.81-2.19,9.51,9.51,0,0,1,4.15-.84,8.64,8.64,0,0,1,6.19,2.23q2.35,2.23,2.36,6.8V81.55h-6.72V66.44c0-2.82-1.32-4.23-3.94-4.23a5.47,5.47,0,0,0-3.36,1.11,3.74,3.74,0,0,0-1.49,3.21v15Z"/><path class="cls-2" d="M1053.3,81.55l-.43-2.68a7.44,7.44,0,0,1-2.81,2.25,10.52,10.52,0,0,1-4.68.91,9.21,9.21,0,0,1-6.26-2,6.72,6.72,0,0,1-2.28-5.37,7,7,0,0,1,1.15-4.25,6.89,6.89,0,0,1,3-2.32,16.16,16.16,0,0,1,4.2-1.06l5-.67a3.89,3.89,0,0,0,1.7-.53,1.3,1.3,0,0,0,.41-1.06,3.41,3.41,0,0,0-.91-2.28,4.12,4.12,0,0,0-3.17-1,5.24,5.24,0,0,0-3,.82,3.22,3.22,0,0,0-1.42,2.45h-6.23a7.94,7.94,0,0,1,1.31-4.25,8.89,8.89,0,0,1,3.72-3.12,13.77,13.77,0,0,1,6-1.18c3.36,0,5.92.89,7.7,2.67a10,10,0,0,1,2.66,7.41V81.55Zm-.91-8.4V70.61l-5.47.72a5.7,5.7,0,0,0-2.6.91,2.24,2.24,0,0,0-.91,1.92,2.39,2.39,0,0,0,1,2.07,4.85,4.85,0,0,0,2.81.72,7,7,0,0,0,3.55-.92A3.06,3.06,0,0,0,1052.39,73.15Z"/><path class="cls-2" d="M1062.85,74.21h6.48a3.07,3.07,0,0,0,1.72,2.11,6.61,6.61,0,0,0,2.74.58,6.28,6.28,0,0,0,3-.65,2.13,2.13,0,0,0,1.19-2,1.79,1.79,0,0,0-.91-1.68,7.36,7.36,0,0,0-2.83-.72l-2.06-.24a18.33,18.33,0,0,1-4.56-1.13,6.71,6.71,0,0,1-3.07-2.35,6.93,6.93,0,0,1-1.11-4.1,6.83,6.83,0,0,1,2.79-5.67,12,12,0,0,1,7.53-2.16q4.76,0,7.44,2.16a8,8,0,0,1,3,5.71h-6.38a2.86,2.86,0,0,0-1.53-2.18,5.94,5.94,0,0,0-2.5-.55A5,5,0,0,0,1071,62a2,2,0,0,0-1,1.75,1.78,1.78,0,0,0,.67,1.46,5.58,5.58,0,0,0,2.69.79l2.06.24a20.81,20.81,0,0,1,4.66,1.06,7.6,7.6,0,0,1,3.38,2.35,6.71,6.71,0,0,1,1.27,4.32,7.16,7.16,0,0,1-2.78,5.81q-2.79,2.25-8.06,2.25-5,0-7.85-2.11A7.87,7.87,0,0,1,1062.85,74.21Z"/><path class="cls-2" d="M1111.61,74a8.55,8.55,0,0,1-1.68,3.91,9.86,9.86,0,0,1-3.84,3,14,14,0,0,1-5.95,1.13,13,13,0,0,1-6.79-1.61,10,10,0,0,1-4.06-4.48,15.45,15.45,0,0,1-1.34-6.63,15.75,15.75,0,0,1,1.39-6.79,10.7,10.7,0,0,1,4.12-4.63,12.64,12.64,0,0,1,6.72-1.68,12,12,0,0,1,6.44,1.61,10.08,10.08,0,0,1,3.88,4.37,14.48,14.48,0,0,1,1.3,6.26c0,.42,0,.86,0,1.34a11.85,11.85,0,0,1-.14,1.25h-16.8a7.83,7.83,0,0,0,1.65,4.23,4.83,4.83,0,0,0,3.87,1.53,6.06,6.06,0,0,0,3.07-.72,3.81,3.81,0,0,0,1.73-2.06ZM1100.38,61.2q-4.47,0-5.43,5.19h8.83a1.52,1.52,0,0,0,1-.24,1.09,1.09,0,0,0,.26-.82,4.09,4.09,0,0,0-1.2-2.83A4.49,4.49,0,0,0,1100.38,61.2Z"/><path class="cls-2" d="M1114.82,74.21h6.48a3.06,3.06,0,0,0,1.73,2.11,6.53,6.53,0,0,0,2.73.58,6.23,6.23,0,0,0,3-.65,2.12,2.12,0,0,0,1.2-2,1.81,1.81,0,0,0-.91-1.68,7.46,7.46,0,0,0-2.83-.72l-2.07-.24a18.33,18.33,0,0,1-4.56-1.13,6.77,6.77,0,0,1-3.07-2.35,7,7,0,0,1-1.1-4.1,6.82,6.82,0,0,1,2.78-5.67,12,12,0,0,1,7.53-2.16q4.76,0,7.44,2.16a8,8,0,0,1,3,5.71h-6.39a2.83,2.83,0,0,0-1.53-2.18,5.87,5.87,0,0,0-2.5-.55A5,5,0,0,0,1123,62a2,2,0,0,0-1,1.75,1.81,1.81,0,0,0,.67,1.46,5.62,5.62,0,0,0,2.69.79l2.06.24a20.81,20.81,0,0,1,4.66,1.06,7.49,7.49,0,0,1,3.38,2.35,6.72,6.72,0,0,1,1.28,4.32,7.14,7.14,0,0,1-2.79,5.81q-2.78,2.25-8.06,2.25-5,0-7.85-2.11A7.91,7.91,0,0,1,1114.82,74.21Z"/><circle class="cls-3" cx="981" cy="849" r="129"/><path class="cls-4" d="M981,981a132,132,0,1,1,132-132A132.14,132.14,0,0,1,981,981Zm0-258a126,126,0,1,0,126,126A126.14,126.14,0,0,0,981,723Z"/><rect class="cls-3" x="49" y="147" width="1868" height="440"/><path class="cls-4" d="M1917,589H49a2,2,0,0,1-2-2V147a2,2,0,0,1,2-2H1917a2,2,0,0,1,2,2V587A2,2,0,0,1,1917,589ZM51,585H1915V149H51Z"/><path class="cls-5" d="M409.94,440.23c-19.28-7.65-42.27-26.72-42.27-74.07V314.55c0-45.24-25.71-59.3-35.08-59.3v-6c12.87,0,41.08,16.44,41.08,65.3v51.61c0,24.27,6.68,55.87,38.49,68.5Z"/><polygon class="cls-5" points="402.18 453.08 436.43 442.32 409.99 418.04 402.18 453.08"/><path class="cls-5" d="M614,445.33v-6c9.37,0,35.08-14.05,35.08-59.3v-51.6c0-47.36,23-66.42,42.27-74.08l2.22,5.58c-31.81,12.63-38.49,44.22-38.49,68.5V380C655.05,428.89,626.84,445.33,614,445.33Z"/><polygon class="cls-5" points="691.37 276.55 717.81 252.27 683.56 241.51 691.37 276.55"/><path class="cls-5" d="M1466.22,440.23c-19.28-7.65-42.27-26.72-42.27-74.07V314.55c0-45.24-25.71-59.3-35.08-59.3v-6c12.87,0,41.08,16.44,41.08,65.3v51.61c0,24.27,6.68,55.87,38.49,68.5Z"/><polygon class="cls-5" points="1458.46 453.08 1492.71 442.32 1466.27 418.04 1458.46 453.08"/><path class="cls-5" d="M1635.56,445.33v-6c9.37,0,35.08-14.05,35.08-59.3v-51.6c0-47.36,23-66.42,42.28-74.08l2.21,5.58c-31.81,12.63-38.49,44.22-38.49,68.5V380C1676.64,428.89,1648.43,445.33,1635.56,445.33Z"/><polygon class="cls-5" points="1712.96 276.55 1739.4 252.27 1705.15 241.51 1712.96 276.55"/><path class="cls-5" d="M938.88,440.23c-19.28-7.65-42.27-26.72-42.27-74.07V314.55c0-45.24-25.71-59.3-35.08-59.3v-6c12.87,0,41.08,16.44,41.08,65.3v51.61c0,24.27,6.68,55.87,38.49,68.5Z"/><polygon class="cls-5" points="931.12 453.08 965.37 442.32 938.93 418.04 931.12 453.08"/><path class="cls-5" d="M1139.81,445.33v-6c9.36,0,35.08-14.05,35.08-59.3v-51.6c0-47.36,23-66.42,42.27-74.08l2.21,5.58c-31.81,12.63-38.48,44.22-38.48,68.5V380C1180.89,428.89,1152.68,445.33,1139.81,445.33Z"/><polygon class="cls-5" points="1217.2 276.55 1243.64 252.27 1209.4 241.51 1217.2 276.55"/><path class="cls-2" d="M1276.48,322.29h4.77a9.12,9.12,0,0,1-2.8,6,9.35,9.35,0,0,1-6.61,2.23c-3.28,0-5.76-1-7.42-3s-2.5-4.81-2.5-8.42a15.19,15.19,0,0,1,1.14-6.14,8.66,8.66,0,0,1,3.39-4,10.32,10.32,0,0,1,5.58-1.41,9.75,9.75,0,0,1,4.66,1,7.83,7.83,0,0,1,3.06,2.9,10.42,10.42,0,0,1,1.37,4.32h-4.77a5.06,5.06,0,0,0-1.5-3,4.22,4.22,0,0,0-3-1.11,4.38,4.38,0,0,0-3.77,1.87,9.28,9.28,0,0,0-1.35,5.46,9.13,9.13,0,0,0,1.38,5.46,4.4,4.4,0,0,0,3.74,1.87,4.49,4.49,0,0,0,3-1.07A5.19,5.19,0,0,0,1276.48,322.29Z"/><path class="cls-2" d="M1291.94,330.42a8.94,8.94,0,0,1-4.61-1.09,6.75,6.75,0,0,1-2.77-3,11.37,11.37,0,0,1,0-9,6.93,6.93,0,0,1,2.78-3,8.78,8.78,0,0,1,4.58-1.11,9,9,0,0,1,4.62,1.09,6.78,6.78,0,0,1,2.75,3,11.31,11.31,0,0,1,0,9,7,7,0,0,1-2.77,3.06A8.86,8.86,0,0,1,1291.94,330.42Zm0-3.9a3.27,3.27,0,0,0,2.77-1.25,5.75,5.75,0,0,0,.94-3.49,5.6,5.6,0,0,0-.94-3.44,3.73,3.73,0,0,0-5.54,0,5.65,5.65,0,0,0-.94,3.5,5.52,5.52,0,0,0,.94,3.44A3.26,3.26,0,0,0,1291.94,326.52Z"/><path class="cls-2" d="M1303.33,330.1V313.52h3.87l.32,2.08a5,5,0,0,1,1.9-1.72,6.25,6.25,0,0,1,3-.68,5.73,5.73,0,0,1,4.14,1.49,6,6,0,0,1,1.56,4.53V330.1h-4.48V320c0-1.88-.88-2.82-2.63-2.82a3.67,3.67,0,0,0-2.24.74,2.51,2.51,0,0,0-1,2.14v10Z"/><path class="cls-2" d="M1322.85,325.33v-8.19h-2.69v-3.49h1.7a1.53,1.53,0,0,0,.93-.21,1.38,1.38,0,0,0,.32-.91l.47-3.81h3.72v4.8H1331v3.62h-3.71v7.42a2.33,2.33,0,0,0,.46,1.64,2.48,2.48,0,0,0,1.78.48h1.79v3.48c-.4.07-.9.13-1.49.18s-1.18.08-1.77.08a5.48,5.48,0,0,1-4-1.25A5.23,5.23,0,0,1,1322.85,325.33Z"/><path class="cls-2" d="M1334.46,330.1V313.52h3.88l.35,2.34a5.11,5.11,0,0,1,1.76-1.79,4.92,4.92,0,0,1,2.69-.71,6.9,6.9,0,0,1,.75.05,4.48,4.48,0,0,1,.62.11v4h-1.25a5.1,5.1,0,0,0-3.23.88,3.63,3.63,0,0,0-1.09,3v8.74Z"/><path class="cls-2" d="M1354.21,330.42a8.94,8.94,0,0,1-4.61-1.09,6.75,6.75,0,0,1-2.77-3,11.37,11.37,0,0,1,0-9,6.93,6.93,0,0,1,2.78-3,8.78,8.78,0,0,1,4.58-1.11,9,9,0,0,1,4.62,1.09,6.78,6.78,0,0,1,2.75,3,11.31,11.31,0,0,1,0,9,7,7,0,0,1-2.77,3.06A8.86,8.86,0,0,1,1354.21,330.42Zm0-3.9a3.27,3.27,0,0,0,2.77-1.25,5.68,5.68,0,0,0,.94-3.49,5.54,5.54,0,0,0-.94-3.44,3.73,3.73,0,0,0-5.54,0,5.65,5.65,0,0,0-.94,3.5,5.52,5.52,0,0,0,.94,3.44A3.26,3.26,0,0,0,1354.21,326.52Z"/><path class="cls-2" d="M1365.6,330.1V307.22h4.48V330.1Z"/><path class="cls-6" d="M1360.2,267.93h-8.43a1.56,1.56,0,0,1-1.55-1.55v-15H1345v15a1.55,1.55,0,0,1-1.55,1.55h-8.14a1.55,1.55,0,1,1,0-3.1h6.59v-15a1.54,1.54,0,0,1,1.55-1.55h8.28a1.54,1.54,0,0,1,1.55,1.55v15h5.33V239h-11a1.56,1.56,0,0,1-1.55-1.54l-.07-11.1h-10.73a1.55,1.55,0,0,1-1.55-1.55v-6.59h-5.18V225a1.54,1.54,0,0,1-1.55,1.55h-24.7a1.54,1.54,0,0,1-1.55-1.55v-6.73h-5.18v6.59a1.55,1.55,0,0,1-1.55,1.55h-11.38v11.09a1.55,1.55,0,0,1-1.55,1.55h-10.37v25.82H1276v-15a1.55,1.55,0,0,1,1.55-1.55h8.29a1.55,1.55,0,0,1,1.55,1.55v15h6.58a1.55,1.55,0,0,1,0,3.1h-8.13a1.55,1.55,0,0,1-1.55-1.55v-15h-5.19v15a1.55,1.55,0,0,1-1.55,1.55h-8.28a1.55,1.55,0,0,1-1.55-1.55V237.46a1.54,1.54,0,0,1,1.55-1.55h10.37V224.82a1.54,1.54,0,0,1,1.55-1.55h11.38v-5h-6.73a1.54,1.54,0,0,1-1.55-1.55V208.4a1.54,1.54,0,0,1,1.55-1.55h8.28a1.55,1.55,0,0,1,1.55,1.55v6.73h6.73a1.55,1.55,0,0,1,1.55,1.55v6.73h21.6v-6.73a1.56,1.56,0,0,1,1.55-1.55h6.59V208.4a1.54,1.54,0,0,1,1.55-1.55h8.28a1.54,1.54,0,0,1,1.55,1.55v8.28a1.54,1.54,0,0,1-1.55,1.55h-6.59v5h10.72a1.55,1.55,0,0,1,1.55,1.54l.07,11.1h11a1.54,1.54,0,0,1,1.55,1.55v28.92A1.55,1.55,0,0,1,1360.2,267.93Zm-23.44-52.8h5.18V210h-5.18Zm-49.4,0h5.18V210h-5.18Zm47.85,27.8h-8.28a1.54,1.54,0,0,1-1.55-1.55v-8.13a1.54,1.54,0,0,1,1.55-1.55h8.28a1.55,1.55,0,0,1,1.55,1.55v8.13A1.55,1.55,0,0,1,1335.21,242.93Zm-6.73-3.1h5.18v-5h-5.18Zm-26.11,3.1h-8.28a1.54,1.54,0,0,1-1.55-1.55v-8.13a1.54,1.54,0,0,1,1.55-1.55h8.28a1.54,1.54,0,0,1,1.55,1.55v8.13A1.54,1.54,0,0,1,1302.37,242.93Zm-6.73-3.1h5.18v-5h-5.18Z"/><path class="cls-6" d="M1360.2,267.93h-8.43a1.56,1.56,0,0,1-1.55-1.55v-15H1345v15a1.55,1.55,0,0,1-1.55,1.55h-8.14a1.56,1.56,0,0,1-1.55-1.55v-6.74h-38.16v6.74a1.56,1.56,0,0,1-1.55,1.55h-8.28a1.55,1.55,0,0,1-1.55-1.55v-15h-5.19v15a1.55,1.55,0,0,1-1.55,1.55h-8.28a1.55,1.55,0,0,1-1.55-1.55V237.46a1.54,1.54,0,0,1,1.55-1.55h10.37V224.82a1.54,1.54,0,0,1,1.55-1.55h11.38v-5h-6.73a1.54,1.54,0,0,1-1.55-1.55V208.4a1.54,1.54,0,0,1,1.55-1.55h8.28a1.55,1.55,0,0,1,1.55,1.55v6.73h6.73a1.55,1.55,0,0,1,1.55,1.55v6.73h21.6v-6.73a1.56,1.56,0,0,1,1.55-1.55h6.59V208.4a1.54,1.54,0,0,1,1.55-1.55h8.28a1.54,1.54,0,0,1,1.55,1.55v8.28a1.54,1.54,0,0,1-1.55,1.55h-6.59v5h10.72a1.55,1.55,0,0,1,1.55,1.54l.07,11.1h11a1.54,1.54,0,0,1,1.55,1.55v28.92A1.55,1.55,0,0,1,1360.2,267.93Zm-6.88-3.1h5.33V239h-11a1.56,1.56,0,0,1-1.55-1.54l-.07-11.1h-10.73a1.55,1.55,0,0,1-1.55-1.55v-6.59h-5.18V225a1.54,1.54,0,0,1-1.55,1.55h-24.7a1.54,1.54,0,0,1-1.55-1.55v-6.73h-5.18v6.59a1.55,1.55,0,0,1-1.55,1.55h-11.38v11.09a1.55,1.55,0,0,1-1.55,1.55h-10.37v25.82H1276v-15a1.55,1.55,0,0,1,1.55-1.55h8.29a1.55,1.55,0,0,1,1.55,1.55v15h5.18v-6.74a1.55,1.55,0,0,1,1.55-1.55h41.26a1.55,1.55,0,0,1,1.55,1.55v6.74h5v-15a1.54,1.54,0,0,1,1.55-1.55h8.28a1.54,1.54,0,0,1,1.55,1.55Zm-16.56-49.7h5.18V210h-5.18Zm-49.4,0h5.18V210h-5.18Z"/><path class="cls-7" d="M1302.37,242.93h-8.28a1.54,1.54,0,0,1-1.55-1.55v-8.13a1.54,1.54,0,0,1,1.55-1.55h8.28a1.54,1.54,0,0,1,1.55,1.55v8.13A1.54,1.54,0,0,1,1302.37,242.93Zm-6.73-3.1h5.18v-5h-5.18Z"/><path class="cls-7" d="M1335.21,242.93h-8.28a1.54,1.54,0,0,1-1.55-1.55v-8.13a1.54,1.54,0,0,1,1.55-1.55h8.28a1.55,1.55,0,0,1,1.55,1.55v8.13A1.55,1.55,0,0,1,1335.21,242.93Zm-6.73-3.1h5.18v-5h-5.18Z"/><path class="cls-2" d="M716.85,330.1V308h8.64q5.41,0,8,3c1.74,2,2.61,4.67,2.61,8.08s-.87,6.11-2.61,8.08-4.41,3-8,3Zm8.39-18h-3.68V326h3.68a5.76,5.76,0,0,0,4.59-1.71,7.76,7.76,0,0,0,1.49-5.2q0-3.55-1.49-5.26A5.76,5.76,0,0,0,725.24,312.12Z"/><path class="cls-2" d="M754.49,325.08a5.69,5.69,0,0,1-1.12,2.6,6.64,6.64,0,0,1-2.56,2,9.5,9.5,0,0,1-4,.75,8.78,8.78,0,0,1-4.53-1.07,6.63,6.63,0,0,1-2.7-3,10.32,10.32,0,0,1-.9-4.42,10.47,10.47,0,0,1,.93-4.53,7.11,7.11,0,0,1,2.75-3.09,8.48,8.48,0,0,1,4.48-1.12,7.94,7.94,0,0,1,4.29,1.08,6.7,6.7,0,0,1,2.59,2.91,9.66,9.66,0,0,1,.86,4.17q0,.42,0,.9a7.81,7.81,0,0,1-.09.83h-11.2a5.11,5.11,0,0,0,1.1,2.82,3.22,3.22,0,0,0,2.58,1,4,4,0,0,0,2-.48,2.56,2.56,0,0,0,1.16-1.37ZM747,316.53c-2,0-3.19,1.15-3.62,3.46h5.89a1.06,1.06,0,0,0,.66-.16.75.75,0,0,0,.17-.55,2.72,2.72,0,0,0-.8-1.88A3,3,0,0,0,747,316.53Z"/><path class="cls-2" d="M757.72,330.1V307.22h4.48V330.1Z"/><path class="cls-2" d="M765.91,311.38v-4.16h4.74v4.16ZM766,330.1V313.52h4.48V330.1Z"/><path class="cls-2" d="M778.36,330.1l-5.6-16.58h4.89l3,11.11q.19.57.45.57t.45-.57l3-11.11h4.77l-5.6,16.58Z"/><path class="cls-2" d="M806.13,325.08a5.59,5.59,0,0,1-1.12,2.6,6.57,6.57,0,0,1-2.56,2,9.44,9.44,0,0,1-4,.75,8.77,8.77,0,0,1-4.52-1.07,6.71,6.71,0,0,1-2.71-3,11.46,11.46,0,0,1,0-8.95,7,7,0,0,1,2.75-3.09,8.46,8.46,0,0,1,4.48-1.12,7.93,7.93,0,0,1,4.28,1.08,6.66,6.66,0,0,1,2.6,2.91,9.81,9.81,0,0,1,.86,4.17q0,.42,0,.9a5.72,5.72,0,0,1-.1.83h-11.2a5.18,5.18,0,0,0,1.11,2.82,3.2,3.2,0,0,0,2.57,1,4,4,0,0,0,2-.48,2.5,2.5,0,0,0,1.15-1.37Zm-7.49-8.55q-3,0-3.61,3.46h5.89a1,1,0,0,0,.65-.16.71.71,0,0,0,.18-.55,2.72,2.72,0,0,0-.8-1.88A3,3,0,0,0,798.64,316.53Z"/><path class="cls-2" d="M809.36,330.1V313.52h3.88l.35,2.34a5.11,5.11,0,0,1,1.76-1.79,4.92,4.92,0,0,1,2.69-.71,6.9,6.9,0,0,1,.75.05,4.48,4.48,0,0,1,.62.11v4h-1.25a5.1,5.1,0,0,0-3.23.88,3.63,3.63,0,0,0-1.09,3v8.74Z"/><path class="cls-2" d="M821.81,311.38v-4.16h4.74v4.16Zm.13,18.72V313.52h4.48V330.1Z"/><path class="cls-2" d="M830.26,330.1V313.52h3.87l.32,2.08a5.07,5.07,0,0,1,1.91-1.72,6.21,6.21,0,0,1,3-.68,5.73,5.73,0,0,1,4.14,1.49,6,6,0,0,1,1.56,4.53V330.1H840.6V320c0-1.88-.88-2.82-2.63-2.82a3.67,3.67,0,0,0-2.24.74,2.51,2.51,0,0,0-1,2.14v10Z"/><path class="cls-2" d="M863.54,331a4.68,4.68,0,0,1-2.06,4.06q-2.07,1.44-6.36,1.44t-6-1.26a3.73,3.73,0,0,1-1.81-3.12,2.66,2.66,0,0,1,.88-2.2,4.82,4.82,0,0,1,1.84-1,3.71,3.71,0,0,1-1.2-1.07,3.35,3.35,0,0,1,.13-3.72,3.77,3.77,0,0,1,1.74-1.23,4.34,4.34,0,0,1-1.81-1.82,5.42,5.42,0,0,1-.56-2.43,5,5,0,0,1,1.75-3.94,7.61,7.61,0,0,1,5.16-1.54,10.49,10.49,0,0,1,2.29.23,7.58,7.58,0,0,1,1.78.61H864v3l-2.12-.09a3.15,3.15,0,0,1,.45.92,3.83,3.83,0,0,1,.16,1.16,4.43,4.43,0,0,1-.72,2.41,5,5,0,0,1-2.29,1.84,10,10,0,0,1-4.09.71,14.47,14.47,0,0,1-2.15-.16,1.55,1.55,0,0,0-.76.56,1.17,1.17,0,0,0-.23.65c0,.73.47,1.09,1.41,1.09h4.13a6.32,6.32,0,0,1,4.32,1.31A4.57,4.57,0,0,1,863.54,331Zm-6.62-1.48h-3.36a2.23,2.23,0,0,0-1.19.4,1.4,1.4,0,0,0-.61,1.24,1.73,1.73,0,0,0,.85,1.4,4.77,4.77,0,0,0,2.74.61,5.13,5.13,0,0,0,2.86-.61,1.76,1.76,0,0,0,.88-1.5,1.26,1.26,0,0,0-.61-1.15A2.82,2.82,0,0,0,856.92,329.52Zm-4.2-10.88a1.82,1.82,0,0,0,.68,1.48,3.21,3.21,0,0,0,2,.54,3.28,3.28,0,0,0,2.08-.54,1.82,1.82,0,0,0,.68-1.48,1.89,1.89,0,0,0-.68-1.5,3.15,3.15,0,0,0-2.08-.58,3.08,3.08,0,0,0-2,.58A1.89,1.89,0,0,0,852.72,318.64Z"/><polyline class="cls-5" points="785.68 241.38 798.74 276.67 828.95 198.11"/><path class="cls-6" d="M798.74,278.22h0a1.55,1.55,0,0,1-1.44-1l-12.82-34.61-34.62-12.82a1.55,1.55,0,0,1,0-2.9l78.56-30.21a1.55,1.55,0,0,1,2,2l-30.2,78.55A1.55,1.55,0,0,1,798.74,278.22Zm-44-49.94,31.44,11.64a1.59,1.59,0,0,1,.91.92l11.64,31.43,27.48-71.46Z"/><path class="cls-6" d="M785.68,242.93a1.52,1.52,0,0,1-1.1-.46,1.56,1.56,0,0,1,0-2.19L827.85,197a1.55,1.55,0,0,1,2.19,2.2l-43.27,43.26A1.51,1.51,0,0,1,785.68,242.93Z"/><path class="cls-2" d="M93.1,330.1V308h9a10.19,10.19,0,0,1,4.51.85,5.59,5.59,0,0,1,2.55,2.33,7,7,0,0,1,.81,3.41,6,6,0,0,1-.91,3.46,5.42,5.42,0,0,1-2.41,2,3.91,3.91,0,0,1,1.9,1.31,6.61,6.61,0,0,1,1.1,2.6l1.41,6.14h-4.93l-1.08-5.18a3.37,3.37,0,0,0-1.22-2.28,4.76,4.76,0,0,0-2.5-.54H97.74v8Zm8.32-18.3H97.74v6.52h3.65a4.73,4.73,0,0,0,2.84-.76,3.48,3.48,0,0,0,0-5A4.62,4.62,0,0,0,101.42,311.8Z"/><path class="cls-2" d="M128.94,325.08a5.59,5.59,0,0,1-1.12,2.6,6.48,6.48,0,0,1-2.56,2,9.47,9.47,0,0,1-4,.75,8.83,8.83,0,0,1-4.53-1.07,6.69,6.69,0,0,1-2.7-3,10.32,10.32,0,0,1-.9-4.42,10.47,10.47,0,0,1,.93-4.53,7.17,7.17,0,0,1,2.75-3.09,8.48,8.48,0,0,1,4.48-1.12,7.94,7.94,0,0,1,4.29,1.08,6.64,6.64,0,0,1,2.59,2.91,9.66,9.66,0,0,1,.87,4.17c0,.28,0,.58,0,.9a7.81,7.81,0,0,1-.09.83h-11.2a5.18,5.18,0,0,0,1.1,2.82,3.23,3.23,0,0,0,2.58,1,4.06,4.06,0,0,0,2-.48,2.58,2.58,0,0,0,1.15-1.37Zm-7.49-8.55q-3,0-3.62,3.46h5.89a1,1,0,0,0,.66-.16.75.75,0,0,0,.17-.55,2.67,2.67,0,0,0-.8-1.88A3,3,0,0,0,121.45,316.53Z"/><path class="cls-2" d="M142.89,323.83h4.32a7.67,7.67,0,0,1-1.06,3.21,6.67,6.67,0,0,1-2.52,2.45,8.07,8.07,0,0,1-4,.93,8.83,8.83,0,0,1-4.51-1.07,6.75,6.75,0,0,1-2.73-3,10.25,10.25,0,0,1-.92-4.45,10.47,10.47,0,0,1,.93-4.53,6.93,6.93,0,0,1,2.77-3.07,8.64,8.64,0,0,1,4.53-1.11,7.87,7.87,0,0,1,4,.93,6.62,6.62,0,0,1,2.45,2.42,7.87,7.87,0,0,1,1,3.25h-4.32a3,3,0,0,0-3.16-2.69,3.13,3.13,0,0,0-2.69,1.26,5.89,5.89,0,0,0-.93,3.54,5.53,5.53,0,0,0,.91,3.37,3.1,3.1,0,0,0,2.67,1.24,3.44,3.44,0,0,0,2.18-.68A3.15,3.15,0,0,0,142.89,323.83Z"/><path class="cls-2" d="M157.74,330.42a8.94,8.94,0,0,1-4.61-1.09,6.75,6.75,0,0,1-2.77-3,11.37,11.37,0,0,1,0-9,6.93,6.93,0,0,1,2.78-3,8.78,8.78,0,0,1,4.58-1.11,9,9,0,0,1,4.62,1.09,6.78,6.78,0,0,1,2.75,3,11.31,11.31,0,0,1,0,9,7,7,0,0,1-2.77,3.06A8.86,8.86,0,0,1,157.74,330.42Zm0-3.9a3.27,3.27,0,0,0,2.77-1.25,5.75,5.75,0,0,0,.94-3.49,5.6,5.6,0,0,0-.94-3.44,3.73,3.73,0,0,0-5.54,0,5.65,5.65,0,0,0-.94,3.5,5.52,5.52,0,0,0,.94,3.44A3.26,3.26,0,0,0,157.74,326.52Z"/><path class="cls-2" d="M169.13,330.1V313.52H173l.32,2.08a5,5,0,0,1,1.9-1.72,6.25,6.25,0,0,1,3-.68,5.73,5.73,0,0,1,4.14,1.49,6,6,0,0,1,1.56,4.53V330.1h-4.49V320c0-1.88-.87-2.82-2.62-2.82a3.67,3.67,0,0,0-2.24.74,2.51,2.51,0,0,0-1,2.14v10Z"/><path class="cls-2" d="M187.62,330.1V313.52h3.88l.32,2.08a5,5,0,0,1,1.9-1.72,6.23,6.23,0,0,1,3-.68,5.76,5.76,0,0,1,4.14,1.49,6,6,0,0,1,1.55,4.53V330.1H198V320c0-1.88-.87-2.82-2.62-2.82a3.65,3.65,0,0,0-2.24.74,2.51,2.51,0,0,0-1,2.14v10Z"/><path class="cls-2" d="M216.42,330.1l-.28-1.79a4.89,4.89,0,0,1-1.88,1.5,7,7,0,0,1-3.12.61,6.18,6.18,0,0,1-4.17-1.31,4.51,4.51,0,0,1-1.52-3.59,4.28,4.28,0,0,1,2.8-4.38,10.74,10.74,0,0,1,2.8-.7l3.33-.45a2.6,2.6,0,0,0,1.13-.35.88.88,0,0,0,.27-.71,2.27,2.27,0,0,0-.6-1.52,2.73,2.73,0,0,0-2.12-.69,3.56,3.56,0,0,0-2,.55,2.18,2.18,0,0,0-.94,1.63H206a5.22,5.22,0,0,1,.88-2.83,5.9,5.9,0,0,1,2.48-2.08,9.15,9.15,0,0,1,4-.79,7,7,0,0,1,5.13,1.78,6.65,6.65,0,0,1,1.78,4.94V330.1Zm-.6-5.6v-1.7l-3.65.48a3.81,3.81,0,0,0-1.73.61,1.52,1.52,0,0,0-.61,1.28,1.58,1.58,0,0,0,.69,1.38,3.22,3.22,0,0,0,1.87.48,4.6,4.6,0,0,0,2.37-.61A2.06,2.06,0,0,0,215.82,324.5Z"/><path class="cls-2" d="M223.75,311.38v-4.16h4.74v4.16Zm.13,18.72V313.52h4.48V330.1Z"/><path class="cls-2" d="M231.11,325.2h4.32a2,2,0,0,0,1.15,1.41,4.42,4.42,0,0,0,1.83.39,4.08,4.08,0,0,0,2-.44,1.41,1.41,0,0,0,.8-1.32,1.18,1.18,0,0,0-.61-1.12,4.65,4.65,0,0,0-1.88-.48l-1.38-.16a12.07,12.07,0,0,1-3-.76,4.46,4.46,0,0,1-2.05-1.56,4.67,4.67,0,0,1-.73-2.74,4.54,4.54,0,0,1,1.85-3.78,8,8,0,0,1,5-1.44,7.68,7.68,0,0,1,5,1.44,5.32,5.32,0,0,1,2,3.81H241.1a1.9,1.9,0,0,0-1-1.45,3.86,3.86,0,0,0-1.66-.37,3.41,3.41,0,0,0-1.86.43,1.33,1.33,0,0,0-.67,1.17,1.19,1.19,0,0,0,.45,1,3.59,3.59,0,0,0,1.79.53l1.38.16a13.16,13.16,0,0,1,3.1.71,5.05,5.05,0,0,1,2.26,1.56,4.53,4.53,0,0,1,.84,2.88,4.8,4.8,0,0,1-1.85,3.88,8.39,8.39,0,0,1-5.38,1.5,8.53,8.53,0,0,1-5.23-1.41A5.26,5.26,0,0,1,231.11,325.2Z"/><path class="cls-2" d="M247.62,325.2h4.32a2,2,0,0,0,1.15,1.41,4.42,4.42,0,0,0,1.83.39,4.08,4.08,0,0,0,2-.44,1.39,1.39,0,0,0,.8-1.32,1.18,1.18,0,0,0-.61-1.12,4.65,4.65,0,0,0-1.88-.48l-1.38-.16a12.18,12.18,0,0,1-3-.76,4.51,4.51,0,0,1-2-1.56,4.67,4.67,0,0,1-.73-2.74,4.57,4.57,0,0,1,1.85-3.78,8,8,0,0,1,5-1.44,7.73,7.73,0,0,1,5,1.44,5.34,5.34,0,0,1,2,3.81h-4.25a1.87,1.87,0,0,0-1-1.45,3.83,3.83,0,0,0-1.66-.37,3.41,3.41,0,0,0-1.86.43,1.35,1.35,0,0,0-.67,1.17,1.19,1.19,0,0,0,.45,1,3.63,3.63,0,0,0,1.79.53l1.38.16a13.16,13.16,0,0,1,3.1.71,5.05,5.05,0,0,1,2.26,1.56,4.53,4.53,0,0,1,.84,2.88,4.77,4.77,0,0,1-1.85,3.88,8.39,8.39,0,0,1-5.38,1.5,8.53,8.53,0,0,1-5.23-1.41A5.26,5.26,0,0,1,247.62,325.2Z"/><path class="cls-2" d="M275.4,330.1l-.29-1.79a4.85,4.85,0,0,1-1.87,1.5,7,7,0,0,1-3.12.61,6.23,6.23,0,0,1-4.18-1.31,4.51,4.51,0,0,1-1.52-3.59,4.7,4.7,0,0,1,.77-2.83,4.63,4.63,0,0,1,2-1.55,10.94,10.94,0,0,1,2.8-.7l3.33-.45a2.61,2.61,0,0,0,1.14-.35.88.88,0,0,0,.27-.71,2.24,2.24,0,0,0-.61-1.52,2.7,2.7,0,0,0-2.11-.69,3.54,3.54,0,0,0-2,.55,2.15,2.15,0,0,0-.94,1.63h-4.16a5.22,5.22,0,0,1,.88-2.83A5.84,5.84,0,0,1,268.3,314a9.1,9.1,0,0,1,4-.79A7,7,0,0,1,277.4,315a6.69,6.69,0,0,1,1.78,4.94V330.1Zm-.61-5.6v-1.7l-3.65.48a3.81,3.81,0,0,0-1.72.61,1.49,1.49,0,0,0-.61,1.28,1.58,1.58,0,0,0,.69,1.38,3.2,3.2,0,0,0,1.87.48,4.65,4.65,0,0,0,2.37-.61A2,2,0,0,0,274.79,324.5Z"/><path class="cls-2" d="M282.86,330.1V313.52h3.87l.32,2.08a5,5,0,0,1,1.9-1.72,6.23,6.23,0,0,1,3-.68,5.76,5.76,0,0,1,4.14,1.49,6,6,0,0,1,1.55,4.53V330.1h-4.48V320c0-1.88-.87-2.82-2.62-2.82a3.67,3.67,0,0,0-2.24.74,2.51,2.51,0,0,0-1,2.14v10Z"/><path class="cls-2" d="M312.07,323.83h4.32a7.67,7.67,0,0,1-1.06,3.21,6.67,6.67,0,0,1-2.52,2.45,8,8,0,0,1-4,.93,8.83,8.83,0,0,1-4.51-1.07,6.75,6.75,0,0,1-2.73-3,10.25,10.25,0,0,1-.92-4.45,10.47,10.47,0,0,1,.93-4.53,6.93,6.93,0,0,1,2.77-3.07,8.64,8.64,0,0,1,4.53-1.11,7.87,7.87,0,0,1,4,.93,6.54,6.54,0,0,1,2.45,2.42,7.87,7.87,0,0,1,1,3.25H312a3,3,0,0,0-3.16-2.69,3.13,3.13,0,0,0-2.69,1.26,5.89,5.89,0,0,0-.93,3.54,5.59,5.59,0,0,0,.91,3.37,3.1,3.1,0,0,0,2.67,1.24,3.42,3.42,0,0,0,2.18-.68A3.15,3.15,0,0,0,312.07,323.83Z"/><path class="cls-2" d="M334.41,325.08a5.59,5.59,0,0,1-1.12,2.6,6.55,6.55,0,0,1-2.56,2,9.47,9.47,0,0,1-4,.75,8.8,8.8,0,0,1-4.53-1.07,6.63,6.63,0,0,1-2.7-3,10.32,10.32,0,0,1-.9-4.42,10.47,10.47,0,0,1,.93-4.53,7.11,7.11,0,0,1,2.75-3.09,8.48,8.48,0,0,1,4.48-1.12,7.94,7.94,0,0,1,4.29,1.08,6.7,6.7,0,0,1,2.59,2.91,9.66,9.66,0,0,1,.86,4.17q0,.42,0,.9a7.81,7.81,0,0,1-.09.83h-11.2a5.18,5.18,0,0,0,1.1,2.82,3.22,3.22,0,0,0,2.58,1,4,4,0,0,0,2-.48,2.56,2.56,0,0,0,1.16-1.37Zm-7.49-8.55c-2,0-3.19,1.15-3.62,3.46h5.89a1,1,0,0,0,.66-.16.75.75,0,0,0,.17-.55,2.72,2.72,0,0,0-.8-1.88A3,3,0,0,0,326.92,316.53Z"/><path class="cls-6" d="M213.32,270.89a33.51,33.51,0,1,1,33.51-33.5A33.54,33.54,0,0,1,213.32,270.89Zm0-63.91a30.41,30.41,0,1,0,30.41,30.41A30.44,30.44,0,0,0,213.32,207Z"/><path class="cls-6" d="M213.32,214.41a1.54,1.54,0,0,1-1.55-1.55V198.11a1.55,1.55,0,0,1,3.1,0v14.75A1.54,1.54,0,0,1,213.32,214.41Z"/><path class="cls-6" d="M213.32,278.22a1.55,1.55,0,0,1-1.55-1.55V261.92a1.55,1.55,0,1,1,3.1,0v14.75A1.55,1.55,0,0,1,213.32,278.22Z"/><path class="cls-6" d="M252.6,238.94H237.85a1.55,1.55,0,1,1,0-3.1H252.6a1.55,1.55,0,1,1,0,3.1Z"/><path class="cls-6" d="M188.79,238.94H174a1.55,1.55,0,1,1,0-3.1h14.75a1.55,1.55,0,1,1,0,3.1Z"/><path class="cls-7" d="M213.32,245.15a1.54,1.54,0,0,1-1.55-1.55V231.17a1.55,1.55,0,0,1,3.1,0V243.6A1.54,1.54,0,0,1,213.32,245.15Z"/><path class="cls-7" d="M219.53,238.94H207.11a1.55,1.55,0,0,1,0-3.1h12.42a1.55,1.55,0,1,1,0,3.1Z"/><path class="cls-2" d="M409.89,543.1,404.13,521h5.31L412.35,536c.07.32.2.48.42.48s.33-.15.41-.44l3.65-15h4.22l3.65,15c.09.29.23.44.42.44s.35-.16.42-.48L428.45,521h5.12l-5.76,22.08h-5.12l-3.84-15.46L415,543.1Z"/><path class="cls-2" d="M449.76,538.08a5.59,5.59,0,0,1-1.12,2.6,6.48,6.48,0,0,1-2.56,2,9.47,9.47,0,0,1-4,.75,8.83,8.83,0,0,1-4.53-1.07,6.75,6.75,0,0,1-2.7-3,10.32,10.32,0,0,1-.9-4.42,10.47,10.47,0,0,1,.93-4.53,7.17,7.17,0,0,1,2.75-3.09,8.48,8.48,0,0,1,4.48-1.12,7.94,7.94,0,0,1,4.29,1.08,6.64,6.64,0,0,1,2.59,2.91,9.66,9.66,0,0,1,.87,4.17c0,.28,0,.58,0,.9a7.81,7.81,0,0,1-.09.83h-11.2a5.26,5.26,0,0,0,1.1,2.82,3.23,3.23,0,0,0,2.58,1,4.06,4.06,0,0,0,2.05-.48,2.54,2.54,0,0,0,1.15-1.37Zm-7.49-8.55c-2,0-3.19,1.15-3.61,3.46h5.88a1,1,0,0,0,.66-.16.71.71,0,0,0,.18-.55,2.72,2.72,0,0,0-.8-1.88A3,3,0,0,0,442.27,529.53Z"/><path class="cls-2" d="M463.33,543.1l-.29-1.79a4.85,4.85,0,0,1-1.87,1.5,7,7,0,0,1-3.12.61,6.21,6.21,0,0,1-4.18-1.31,4.51,4.51,0,0,1-1.52-3.59,4.7,4.7,0,0,1,.77-2.83,4.63,4.63,0,0,1,2-1.55,10.84,10.84,0,0,1,2.8-.7l3.33-.45a2.6,2.6,0,0,0,1.13-.35.85.85,0,0,0,.28-.71,2.28,2.28,0,0,0-.61-1.52,2.72,2.72,0,0,0-2.11-.69,3.54,3.54,0,0,0-2,.55,2.16,2.16,0,0,0-1,1.63h-4.16a5.3,5.3,0,0,1,.88-2.83,5.9,5.9,0,0,1,2.48-2.08,9.15,9.15,0,0,1,4-.79,7,7,0,0,1,5.14,1.78,6.68,6.68,0,0,1,1.77,4.94V543.1Zm-.61-5.6v-1.7l-3.65.48a3.85,3.85,0,0,0-1.73.61,1.52,1.52,0,0,0-.61,1.28,1.58,1.58,0,0,0,.69,1.38,3.22,3.22,0,0,0,1.87.48,4.6,4.6,0,0,0,2.37-.61A2,2,0,0,0,462.72,537.5Z"/><path class="cls-2" d="M470.78,549.18V526.52h3.87l.36,2.12a5,5,0,0,1,2-1.8,6.83,6.83,0,0,1,3-.64,6.34,6.34,0,0,1,3.79,1.12,7,7,0,0,1,2.37,3,12.13,12.13,0,0,1,0,8.82,7.09,7.09,0,0,1-2.41,3.1,6.54,6.54,0,0,1-3.92,1.14,5.49,5.49,0,0,1-4.58-2v7.78Zm4.48-15.94v3.27a2.58,2.58,0,0,0,1.07,2.29,4.2,4.2,0,0,0,2.39.72,3.24,3.24,0,0,0,2.77-1.28,5.67,5.67,0,0,0,.94-3.43,5.73,5.73,0,0,0-.93-3.41,3.16,3.16,0,0,0-2.75-1.29,4.28,4.28,0,0,0-1.66.33,3.19,3.19,0,0,0-1.32,1A2.9,2.9,0,0,0,475.26,533.24Z"/><path class="cls-2" d="M497.66,543.42a9,9,0,0,1-4.61-1.09,6.73,6.73,0,0,1-2.76-3,11.31,11.31,0,0,1,0-9,7,7,0,0,1,2.79-3,8.74,8.74,0,0,1,4.57-1.11,9,9,0,0,1,4.63,1.09,6.9,6.9,0,0,1,2.75,3,11.37,11.37,0,0,1,0,9,7,7,0,0,1-2.77,3.06A8.81,8.81,0,0,1,497.66,543.42Zm0-3.9a3.26,3.26,0,0,0,2.77-1.25,5.68,5.68,0,0,0,.94-3.49,5.54,5.54,0,0,0-.94-3.44,3.73,3.73,0,0,0-5.54,0,5.65,5.65,0,0,0-.94,3.5,5.52,5.52,0,0,0,.94,3.44A3.27,3.27,0,0,0,497.66,539.52Z"/><path class="cls-2" d="M509.05,543.1V526.52h3.88l.32,2.08a5,5,0,0,1,1.9-1.72,6.21,6.21,0,0,1,3-.68,5.77,5.77,0,0,1,4.15,1.49,6,6,0,0,1,1.55,4.53V543.1h-4.48V533c0-1.88-.88-2.82-2.62-2.82a3.65,3.65,0,0,0-2.24.74,2.49,2.49,0,0,0-1,2.14v10Z"/><path class="cls-2" d="M527.42,524.38v-4.16h4.74v4.16Zm.13,18.72V526.52H532V543.1Z"/><path class="cls-2" d="M535.49,543.1v-3.55l8.22-9.41h-8v-3.62h13.5v3.56l-8.22,9.4h8.57v3.62Z"/><path class="cls-2" d="M563.17,543.1l-.29-1.79a4.85,4.85,0,0,1-1.87,1.5,7,7,0,0,1-3.12.61,6.19,6.19,0,0,1-4.18-1.31,4.51,4.51,0,0,1-1.52-3.59,4.7,4.7,0,0,1,.77-2.83,4.63,4.63,0,0,1,2-1.55,10.84,10.84,0,0,1,2.8-.7l3.33-.45a2.6,2.6,0,0,0,1.13-.35.88.88,0,0,0,.28-.71,2.28,2.28,0,0,0-.61-1.52,2.72,2.72,0,0,0-2.11-.69,3.54,3.54,0,0,0-2,.55,2.16,2.16,0,0,0-.95,1.63H552.7a5.3,5.3,0,0,1,.88-2.83,5.9,5.9,0,0,1,2.48-2.08,9.15,9.15,0,0,1,4-.79,7,7,0,0,1,5.14,1.78,6.68,6.68,0,0,1,1.77,4.94V543.1Zm-.61-5.6v-1.7l-3.65.48a3.85,3.85,0,0,0-1.73.61,1.52,1.52,0,0,0-.61,1.28,1.58,1.58,0,0,0,.69,1.38,3.22,3.22,0,0,0,1.87.48,4.6,4.6,0,0,0,2.37-.61A2,2,0,0,0,562.56,537.5Z"/><path class="cls-2" d="M571.65,538.33v-8.19H569v-3.49h1.69a1.51,1.51,0,0,0,.93-.21,1.3,1.3,0,0,0,.32-.91l.48-3.81h3.71v4.8h3.75v3.62h-3.72v7.42a2.33,2.33,0,0,0,.47,1.64,2.48,2.48,0,0,0,1.78.48h1.79v3.48c-.41.07-.9.13-1.49.18s-1.18.08-1.78.08a5.51,5.51,0,0,1-4-1.25A5.23,5.23,0,0,1,571.65,538.33Z"/><path class="cls-2" d="M583.13,524.38v-4.16h4.74v4.16Zm.13,18.72V526.52h4.48V543.1Z"/><path class="cls-2" d="M599.13,543.42a8.9,8.9,0,0,1-4.6-1.09,6.75,6.75,0,0,1-2.77-3,11.31,11.31,0,0,1,0-9,7,7,0,0,1,2.79-3,8.74,8.74,0,0,1,4.57-1.11,9,9,0,0,1,4.63,1.09,6.9,6.9,0,0,1,2.75,3,11.37,11.37,0,0,1,0,9,7.05,7.05,0,0,1-2.76,3.06A8.88,8.88,0,0,1,599.13,543.42Zm0-3.9a3.26,3.26,0,0,0,2.77-1.25,5.68,5.68,0,0,0,.94-3.49,5.54,5.54,0,0,0-.94-3.44,3.72,3.72,0,0,0-5.53,0,5.65,5.65,0,0,0-1,3.5,5.52,5.52,0,0,0,1,3.44A3.24,3.24,0,0,0,599.13,539.52Z"/><path class="cls-2" d="M610.52,543.1V526.52h3.88l.32,2.08a5,5,0,0,1,1.9-1.72,6.21,6.21,0,0,1,3-.68,5.77,5.77,0,0,1,4.15,1.49,6,6,0,0,1,1.55,4.53V543.1h-4.48V533c0-1.88-.87-2.82-2.62-2.82a3.65,3.65,0,0,0-2.24.74,2.49,2.49,0,0,0-1,2.14v10Z"/><path class="cls-5" d="M517.72,420.21V411a2.47,2.47,0,0,1,.69-1.71c1.29-1.36,3.18-4.36-3.22-4.36s-4.5,3-3.21,4.36a2.46,2.46,0,0,1,.68,1.71v9.23H495.93l2.81,7.79h10.82v60.63l5.63,7.24,5.48-7.24V428h11l2.81-7.79Z"/><path class="cls-6" d="M515.19,497.42a1.54,1.54,0,0,1-1.22-.6l-5.63-7.23a1.57,1.57,0,0,1-.33-1V429.56h-9.27a1.54,1.54,0,0,1-1.46-1l-2.81-7.79a1.55,1.55,0,0,1,1.46-2.08h15.18V411a.93.93,0,0,0-.25-.64c-1.55-1.63-2.09-3.28-1.5-4.65.9-2.09,3.76-2.33,5.83-2.33s4.94.24,5.84,2.33c.58,1.37.05,3-1.5,4.65a.94.94,0,0,0-.26.64v7.68h15.2a1.55,1.55,0,0,1,1.46,2.08l-2.81,7.79a1.55,1.55,0,0,1-1.46,1h-9.44v59.07a1.53,1.53,0,0,1-.32.94l-5.47,7.23a1.55,1.55,0,0,1-1.22.62Zm-4.08-9.32,4.07,5.22,3.94-5.21V428a1.55,1.55,0,0,1,1.55-1.55h9.9l1.69-4.69H517.72a1.55,1.55,0,0,1-1.55-1.55V411a4.06,4.06,0,0,1,1.11-2.78,3.34,3.34,0,0,0,.86-1.28,5.78,5.78,0,0,0-2.95-.46,5.86,5.86,0,0,0-3,.46,3.62,3.62,0,0,0,.86,1.28,4,4,0,0,1,1.11,2.78v9.23a1.54,1.54,0,0,1-1.55,1.55H498.13l1.69,4.69h9.74a1.55,1.55,0,0,1,1.55,1.55Z"/><path class="cls-2" d="M1491.75,543.1V521h14.82v4h-10.18v4.77h9.25v4h-9.25v5.25h10.47v4Z"/><path class="cls-2" d="M1509.13,543.1l5.73-8.61-5.32-8h5.22l2.88,5.16,2.88-5.16h5l-5.37,8.1,5.63,8.48h-5.22l-3.2-5.76-3.23,5.76Z"/><path class="cls-2" d="M1542.47,538.08a5.59,5.59,0,0,1-1.12,2.6,6.57,6.57,0,0,1-2.56,2,9.47,9.47,0,0,1-4,.75,8.77,8.77,0,0,1-4.52-1.07,6.71,6.71,0,0,1-2.71-3,10.32,10.32,0,0,1-.89-4.42,10.47,10.47,0,0,1,.92-4.53,7.13,7.13,0,0,1,2.76-3.09,8.43,8.43,0,0,1,4.48-1.12,7.93,7.93,0,0,1,4.28,1.08,6.66,6.66,0,0,1,2.6,2.91,9.81,9.81,0,0,1,.86,4.17q0,.42,0,.9a7.57,7.57,0,0,1-.1.83h-11.2a5.18,5.18,0,0,0,1.11,2.82,3.2,3.2,0,0,0,2.57,1,4.06,4.06,0,0,0,2-.48,2.54,2.54,0,0,0,1.15-1.37Zm-7.49-8.55c-2,0-3.19,1.15-3.61,3.46h5.89a1,1,0,0,0,.65-.16.71.71,0,0,0,.18-.55,2.72,2.72,0,0,0-.8-1.88A3,3,0,0,0,1535,529.53Z"/><path class="cls-2" d="M1556.42,536.83h4.32a7.51,7.51,0,0,1-1,3.21,6.7,6.7,0,0,1-2.53,2.45,8,8,0,0,1-4,.93,8.8,8.8,0,0,1-4.51-1.07,6.78,6.78,0,0,1-2.74-3,10.25,10.25,0,0,1-.91-4.45,10.47,10.47,0,0,1,.93-4.53,6.91,6.91,0,0,1,2.76-3.07,8.64,8.64,0,0,1,4.53-1.11,7.87,7.87,0,0,1,4,.93,6.54,6.54,0,0,1,2.45,2.42,7.88,7.88,0,0,1,1,3.25h-4.32a3,3,0,0,0-3.17-2.69,3.14,3.14,0,0,0-2.69,1.26,5.87,5.87,0,0,0-.93,3.54,5.53,5.53,0,0,0,.92,3.37,3.09,3.09,0,0,0,2.67,1.24,3.41,3.41,0,0,0,2.17-.68A3.15,3.15,0,0,0,1556.42,536.83Z"/><path class="cls-2" d="M1563.69,537.4V526.52h4.48V536.6c0,1.9.85,2.85,2.56,2.85a3.5,3.5,0,0,0,2.19-.75,2.57,2.57,0,0,0,1-2.16v-10h4.48V543.1h-3.88l-.32-2.08a5.08,5.08,0,0,1-1.88,1.73,6.1,6.1,0,0,1-3,.67,5.66,5.66,0,0,1-4.1-1.49A6.05,6.05,0,0,1,1563.69,537.4Z"/><path class="cls-2" d="M1583.24,538.33v-8.19h-2.69v-3.49h1.7a1.48,1.48,0,0,0,.92-.21,1.32,1.32,0,0,0,.33-.91l.47-3.81h3.72v4.8h3.74v3.62h-3.71v7.42a2.33,2.33,0,0,0,.46,1.64,2.48,2.48,0,0,0,1.78.48h1.79v3.48c-.4.07-.9.13-1.49.18s-1.18.08-1.77.08a5.48,5.48,0,0,1-4-1.25A5.23,5.23,0,0,1,1583.24,538.33Z"/><path class="cls-2" d="M1594.73,524.38v-4.16h4.73v4.16Zm.13,18.72V526.52h4.48V543.1Z"/><path class="cls-2" d="M1610.73,543.42a8.94,8.94,0,0,1-4.61-1.09,6.75,6.75,0,0,1-2.77-3,11.37,11.37,0,0,1,0-9,6.93,6.93,0,0,1,2.78-3,8.78,8.78,0,0,1,4.58-1.11,9,9,0,0,1,4.62,1.09,6.78,6.78,0,0,1,2.75,3,11.42,11.42,0,0,1,0,9,7.07,7.07,0,0,1-2.77,3.06A8.86,8.86,0,0,1,1610.73,543.42Zm0-3.9a3.27,3.27,0,0,0,2.77-1.25,5.75,5.75,0,0,0,.94-3.49,5.6,5.6,0,0,0-.94-3.44,3.73,3.73,0,0,0-5.54,0,5.65,5.65,0,0,0-1,3.5,5.52,5.52,0,0,0,1,3.44A3.26,3.26,0,0,0,1610.73,539.52Z"/><path class="cls-2" d="M1622.12,543.1V526.52H1626l.32,2.08a5,5,0,0,1,1.9-1.72,6.25,6.25,0,0,1,3-.68,5.73,5.73,0,0,1,4.14,1.49,6,6,0,0,1,1.56,4.53V543.1h-4.48V533c0-1.88-.88-2.82-2.63-2.82a3.67,3.67,0,0,0-2.24.74,2.51,2.51,0,0,0-1,2.14v10Z"/><path class="cls-5" d="M1551,477.51v8c0,2,5.4,4.2,13.15,4.2s13.14-2.22,13.14-4.2v-8s-1.77,4.14-13.14,4.14S1551,477.51,1551,477.51Z"/><path class="cls-6" d="M1564.14,491.22c-9.65,0-14.7-2.9-14.7-5.75v-8a1.55,1.55,0,0,1,3.1,0v7.87c.47.82,4.43,2.74,11.6,2.74s11.13-1.92,11.59-2.74v-7.87a1.55,1.55,0,0,1,3.1,0v8C1578.83,488.32,1573.78,491.22,1564.14,491.22Zm11.61-5.87Zm-23.23,0"/><path class="cls-6" d="M1564.14,467.14c-9.65,0-14.7-2.9-14.7-5.75s5-5.75,14.7-5.75,14.69,2.89,14.69,5.75S1573.78,467.14,1564.14,467.14Zm-11.54-5.75c.67.85,4.6,2.65,11.54,2.65s10.86-1.8,11.53-2.65c-.67-.86-4.6-2.65-11.53-2.65S1553.27,460.53,1552.6,461.39Zm23.15.12Z"/><path class="cls-6" d="M1564.14,475.13c-9.65,0-14.7-2.89-14.7-5.74v-8a1.55,1.55,0,1,1,3.1,0v7.88c.47.81,4.43,2.73,11.6,2.73s11.13-1.92,11.59-2.73v-7.88a1.55,1.55,0,1,1,3.1,0v8C1578.83,472.24,1573.78,475.13,1564.14,475.13Z"/><path class="cls-6" d="M1564.14,483.17c-9.65,0-14.7-2.89-14.7-5.75v-8a1.55,1.55,0,1,1,3.1,0v7.92c.47.82,4.43,2.74,11.6,2.74s11.13-1.92,11.59-2.74v-7.92a1.55,1.55,0,1,1,3.1,0v8C1578.83,480.28,1573.78,483.17,1564.14,483.17Zm11.61-5.87Zm-23.23,0"/><path class="cls-7" d="M1568.13,420.76H1560a1.55,1.55,0,0,1-1.56-1.55v-8.1a1.55,1.55,0,0,1,1.56-1.55h8.1a1.54,1.54,0,0,1,1.55,1.55v8.1A1.54,1.54,0,0,1,1568.13,420.76Zm-6.55-3.1h5v-5h-5Z"/><path class="cls-7" d="M1542.89,429.91h-8.11a1.55,1.55,0,0,1-1.55-1.55v-8.1a1.55,1.55,0,0,1,1.55-1.55h8.11a1.54,1.54,0,0,1,1.55,1.55v8.1A1.54,1.54,0,0,1,1542.89,429.91Zm-6.55-3.1h5v-5h-5Z"/><path class="cls-7" d="M1593.49,429.91h-8.11a1.55,1.55,0,0,1-1.55-1.55v-8.1a1.55,1.55,0,0,1,1.55-1.55h8.11a1.55,1.55,0,0,1,1.55,1.55v8.1A1.55,1.55,0,0,1,1593.49,429.91Zm-6.56-3.1h5v-5h-5Z"/><path class="cls-6" d="M1564.08,452a1.55,1.55,0,0,1-1.55-1.55V426.62a1.55,1.55,0,0,1,3.1,0v23.86A1.56,1.56,0,0,1,1564.08,452Z"/><path class="cls-6" d="M1569.46,433.59a1.57,1.57,0,0,1-1.1-.45l-4.32-4.33-4.13,4.13a1.55,1.55,0,1,1-2.2-2.19l5.23-5.23a1.56,1.56,0,0,1,2.19,0l5.43,5.43a1.55,1.55,0,0,1-1.1,2.64Z"/><path class="cls-6" d="M1553,452a1.56,1.56,0,0,1-1.55-1.55v-3.73a5.92,5.92,0,0,0-1.74-4.21l-5.33-5.33a1.55,1.55,0,0,1,2.19-2.2l5.33,5.33a9,9,0,0,1,2.65,6.41v3.73A1.55,1.55,0,0,1,1553,452Z"/><path class="cls-6" d="M1545.44,445.08a1.54,1.54,0,0,1-1.55-1.55v-7.41a1.54,1.54,0,0,1,1.55-1.55h7.64a1.55,1.55,0,1,1,0,3.1H1547v5.86A1.55,1.55,0,0,1,1545.44,445.08Z"/><path class="cls-6" d="M1575.31,452a1.55,1.55,0,0,1-1.55-1.55v-3.73a9,9,0,0,1,2.65-6.41l5.33-5.33a1.56,1.56,0,1,1,2.2,2.2l-5.33,5.33a5.89,5.89,0,0,0-1.75,4.21v3.73A1.55,1.55,0,0,1,1575.31,452Z"/><path class="cls-6" d="M1582.83,445.08a1.55,1.55,0,0,1-1.55-1.55v-5.86h-6.09a1.55,1.55,0,1,1,0-3.1h7.64a1.54,1.54,0,0,1,1.55,1.55v7.41A1.54,1.54,0,0,1,1582.83,445.08Z"/><path class="cls-2" d="M1738.45,330.1V308h5l6.53,15.42,6.53-15.42h5V330.1H1757V316l-5.38,12.7h-3.23L1743,316V330.1Z"/><path class="cls-2" d="M1775.92,330.1l-.29-1.79a4.85,4.85,0,0,1-1.87,1.5,7,7,0,0,1-3.12.61,6.23,6.23,0,0,1-4.18-1.31,4.51,4.51,0,0,1-1.52-3.59,4.7,4.7,0,0,1,.77-2.83,4.63,4.63,0,0,1,2-1.55,10.94,10.94,0,0,1,2.8-.7l3.33-.45a2.61,2.61,0,0,0,1.14-.35.88.88,0,0,0,.27-.71,2.24,2.24,0,0,0-.61-1.52,2.7,2.7,0,0,0-2.11-.69,3.54,3.54,0,0,0-2,.55,2.15,2.15,0,0,0-.94,1.63h-4.16a5.29,5.29,0,0,1,.87-2.83,5.93,5.93,0,0,1,2.49-2.08,9.1,9.1,0,0,1,4-.79,7,7,0,0,1,5.14,1.78,6.7,6.7,0,0,1,1.78,4.94V330.1Zm-.61-5.6v-1.7l-3.65.48a3.81,3.81,0,0,0-1.72.61,1.49,1.49,0,0,0-.61,1.28,1.58,1.58,0,0,0,.69,1.38,3.2,3.2,0,0,0,1.87.48,4.59,4.59,0,0,0,2.36-.61A2,2,0,0,0,1775.31,324.5Z"/><path class="cls-2" d="M1783.25,311.38v-4.16H1788v4.16Zm.13,18.72V313.52h4.48V330.1Z"/><path class="cls-2" d="M1791.7,330.1V313.52h3.87l.32,2.08a5,5,0,0,1,1.9-1.72,6.23,6.23,0,0,1,3-.68,5.76,5.76,0,0,1,4.14,1.49,6,6,0,0,1,1.55,4.53V330.1H1802V320c0-1.88-.87-2.82-2.62-2.82a3.67,3.67,0,0,0-2.24.74,2.51,2.51,0,0,0-1,2.14v10Z"/><path class="cls-2" d="M1811.21,325.33v-8.19h-2.68v-3.49h1.69a1.51,1.51,0,0,0,.93-.21,1.3,1.3,0,0,0,.32-.91l.48-3.81h3.71v4.8h3.75v3.62h-3.72v7.42a2.33,2.33,0,0,0,.47,1.64,2.47,2.47,0,0,0,1.77.48h1.8v3.49c-.41.06-.9.12-1.49.17s-1.18.08-1.78.08a5.49,5.49,0,0,1-4-1.25A5.23,5.23,0,0,1,1811.21,325.33Z"/><path class="cls-2" d="M1833.13,330.1l-.28-1.79a4.89,4.89,0,0,1-1.88,1.5,7,7,0,0,1-3.12.61,6.18,6.18,0,0,1-4.17-1.31,4.51,4.51,0,0,1-1.52-3.59,4.28,4.28,0,0,1,2.8-4.38,10.74,10.74,0,0,1,2.8-.7l3.33-.45a2.6,2.6,0,0,0,1.13-.35.88.88,0,0,0,.27-.71,2.27,2.27,0,0,0-.6-1.52,2.73,2.73,0,0,0-2.12-.69,3.56,3.56,0,0,0-2,.55,2.18,2.18,0,0,0-.94,1.63h-4.16a5.22,5.22,0,0,1,.88-2.83A5.9,5.9,0,0,1,1826,314a9.15,9.15,0,0,1,4-.79,7,7,0,0,1,5.13,1.78,6.66,6.66,0,0,1,1.78,4.94V330.1Zm-.6-5.6v-1.7l-3.65.48a3.81,3.81,0,0,0-1.73.61,1.52,1.52,0,0,0-.61,1.28,1.58,1.58,0,0,0,.69,1.38,3.22,3.22,0,0,0,1.87.48,4.6,4.6,0,0,0,2.37-.61A2.06,2.06,0,0,0,1832.53,324.5Z"/><path class="cls-2" d="M1840.46,311.38v-4.16h4.74v4.16Zm.13,18.72V313.52h4.48V330.1Z"/><path class="cls-2" d="M1848.91,330.1V313.52h3.87l.32,2.08a5,5,0,0,1,1.91-1.72,6.19,6.19,0,0,1,3-.68,5.73,5.73,0,0,1,4.14,1.49,6,6,0,0,1,1.56,4.53V330.1h-4.48V320c0-1.88-.88-2.82-2.63-2.82a3.67,3.67,0,0,0-2.24.74,2.51,2.51,0,0,0-1,2.14v10Z"/><path class="cls-5" d="M1769,238.89a1.63,1.63,0,0,0-1.63,1.73l2.06,33a1.63,1.63,0,0,0,1.63,1.53h59.65a1.63,1.63,0,0,0,1.63-1.53l2.06-33a1.63,1.63,0,0,0-1.63-1.73Z"/><path class="cls-6" d="M1836.17,237.28a4.74,4.74,0,0,0-3.45-1.49H1769a4.74,4.74,0,0,0-4.73,5l2.06,33a4.75,4.75,0,0,0,4.73,4.44h59.65a4.75,4.75,0,0,0,4.73-4.44l2.06-33A4.77,4.77,0,0,0,1836.17,237.28Zm-3.88,36.3a1.63,1.63,0,0,1-1.63,1.53H1771a1.63,1.63,0,0,1-1.63-1.53l-2.06-33a1.63,1.63,0,0,1,1.63-1.73h63.77a1.63,1.63,0,0,1,1.63,1.73Z"/><path class="cls-3" d="M1801.59,247.55c2.27,0,4.13,2.11,4.13,4.72a4.17,4.17,0,1,1-4.13-4.72Z"/><path class="cls-3" d="M1810,264.56a40.2,40.2,0,0,1-8.8,1,31.83,31.83,0,0,1-8-1,.82.82,0,0,1-.6-.92,6.6,6.6,0,0,1,4.31-5.47,6.8,6.8,0,0,0,9.41,0,6.6,6.6,0,0,1,4.31,5.45A.81.81,0,0,1,1810,264.56Z"/><path class="cls-6" d="M1801.59,260.08c-4,0-7.24-3.5-7.24-7.81s3.25-7.82,7.24-7.82,7.23,3.5,7.23,7.82S1805.57,260.08,1801.59,260.08Zm0-12.53a4.76,4.76,0,1,0,4.13,4.72C1805.72,249.66,1803.86,247.55,1801.59,247.55Z"/><path class="cls-6" d="M1801.17,268.65a35.27,35.27,0,0,1-8.78-1.06,3.93,3.93,0,0,1-2.89-4.35,9.69,9.69,0,0,1,6.59-8.08,1.55,1.55,0,1,1,1.05,2.92,6.62,6.62,0,0,0-4.57,5.58.82.82,0,0,0,.6.92,31.83,31.83,0,0,0,8,1,40.2,40.2,0,0,0,8.8-1,.81.81,0,0,0,.63-.92,6.6,6.6,0,0,0-4.57-5.56,1.55,1.55,0,0,1,1-2.92,9.68,9.68,0,0,1,6.59,8,3.9,3.9,0,0,1-3,4.38A43.38,43.38,0,0,1,1801.17,268.65Z"/><path class="cls-6" d="M1773.16,232a1.5,1.5,0,0,1-1.06-.42,1.54,1.54,0,0,1-.07-2.19c.21-.22,5-5.21,11.57-5.91.22-8.35,1.25-23.72,16.93-26.9a1.55,1.55,0,0,1,.61,3c-14,2.84-14.29,17.29-14.46,25.05V225a1.55,1.55,0,0,1-1.55,1.52c-6.06,0-10.79,5-10.83,5A1.54,1.54,0,0,1,1773.16,232Z"/><path class="cls-6" d="M1808.09,232a1.58,1.58,0,0,1-.81-.23,1.55,1.55,0,0,1-.51-2.13c0-.07,4-6.78,1.82-14.21a29.72,29.72,0,0,1-6.88,1.59H1800a29.72,29.72,0,0,1-6.88-1.59c-2.21,7.43,1.78,14.14,1.82,14.21a1.55,1.55,0,1,1-2.64,1.62c-.23-.37-5.43-9-1.5-18.54a1.57,1.57,0,0,1,.92-.88,1.59,1.59,0,0,1,1.26.11,23.31,23.31,0,0,0,7.26,2h1.27a23.31,23.31,0,0,0,7.26-2,1.59,1.59,0,0,1,1.26-.11,1.57,1.57,0,0,1,.92.88c3.93,9.51-1.27,18.17-1.5,18.54A1.56,1.56,0,0,1,1808.09,232Z"/><path class="cls-6" d="M1828.51,232a1.54,1.54,0,0,1-1.13-.49s-4.8-5-10.83-5A1.55,1.55,0,0,1,1815,225v-.31c-.17-7.76-.48-22.21-14.46-25.05a1.55,1.55,0,0,1,.61-3c15.68,3.18,16.71,18.55,16.93,26.9,6.61.7,11.36,5.69,11.57,5.91a1.54,1.54,0,0,1-.07,2.19A1.5,1.5,0,0,1,1828.51,232Z"/><path class="cls-2" d="M964.41,543.1V521h14.82v4H969.05v4.77h9.25v4h-9.25v5.25h10.47v4Z"/><path class="cls-2" d="M981.79,543.1l5.73-8.61-5.32-8h5.22l2.88,5.16,2.88-5.16h5l-5.38,8.1,5.64,8.48h-5.22l-3.2-5.76-3.23,5.76Z"/><path class="cls-2" d="M1001.15,549.18V526.52H1005l.35,2.12a4.93,4.93,0,0,1,2-1.8,6.79,6.79,0,0,1,3-.64,6.37,6.37,0,0,1,3.79,1.12,7.16,7.16,0,0,1,2.37,3,11.23,11.23,0,0,1,.81,4.39,11.36,11.36,0,0,1-.83,4.43,7.11,7.11,0,0,1-2.42,3.1,6.52,6.52,0,0,1-3.92,1.14,5.47,5.47,0,0,1-4.57-2v7.78Zm4.48-15.94v3.27a2.55,2.55,0,0,0,1.07,2.29,4.17,4.17,0,0,0,2.38.72,3.23,3.23,0,0,0,2.77-1.28,5.67,5.67,0,0,0,.95-3.43,5.73,5.73,0,0,0-.93-3.41,3.18,3.18,0,0,0-2.75-1.29,4.33,4.33,0,0,0-1.67.33,3.16,3.16,0,0,0-1.31,1A2.9,2.9,0,0,0,1005.63,533.24Z"/><path class="cls-2" d="M1020.47,543.1V520.22H1025V543.1Z"/><path class="cls-2" d="M1036.35,543.42a8.91,8.91,0,0,1-4.61-1.09,6.75,6.75,0,0,1-2.77-3,11.37,11.37,0,0,1,0-9,6.87,6.87,0,0,1,2.78-3,8.78,8.78,0,0,1,4.58-1.11,9,9,0,0,1,4.62,1.09,6.84,6.84,0,0,1,2.75,3,10.3,10.3,0,0,1,.91,4.48,10.45,10.45,0,0,1-.92,4.48,7.07,7.07,0,0,1-2.77,3.06A8.86,8.86,0,0,1,1036.35,543.42Zm0-3.9a3.26,3.26,0,0,0,2.76-1.25,5.68,5.68,0,0,0,1-3.49,5.54,5.54,0,0,0-1-3.44,3.72,3.72,0,0,0-5.53,0,5.65,5.65,0,0,0-.95,3.5,5.52,5.52,0,0,0,.95,3.44A3.26,3.26,0,0,0,1036.35,539.52Z"/><path class="cls-2" d="M1047.61,524.38v-4.16h4.74v4.16Zm.13,18.72V526.52h4.48V543.1Z"/><path class="cls-2" d="M1057.08,538.33v-8.19h-2.69v-3.49h1.7a1.51,1.51,0,0,0,.93-.21,1.38,1.38,0,0,0,.32-.91l.48-3.81h3.71v4.8h3.74v3.62h-3.71v7.42a2.33,2.33,0,0,0,.47,1.64,2.45,2.45,0,0,0,1.77.48h1.79v3.48c-.4.07-.9.13-1.48.18s-1.18.08-1.78.08a5.49,5.49,0,0,1-4-1.25A5.23,5.23,0,0,1,1057.08,538.33Z"/><path class="cls-2" d="M1079,543.1l-.29-1.79a4.78,4.78,0,0,1-1.87,1.5,7,7,0,0,1-3.12.61,6.18,6.18,0,0,1-4.17-1.31,4.48,4.48,0,0,1-1.52-3.59,4.25,4.25,0,0,1,2.8-4.38,10.74,10.74,0,0,1,2.8-.7L1077,533a2.61,2.61,0,0,0,1.14-.35.88.88,0,0,0,.27-.71,2.24,2.24,0,0,0-.61-1.52,2.7,2.7,0,0,0-2.11-.69,3.56,3.56,0,0,0-2,.55,2.13,2.13,0,0,0-.94,1.63h-4.16a5.22,5.22,0,0,1,.88-2.83,5.84,5.84,0,0,1,2.48-2.08,9,9,0,0,1,4-.79A7,7,0,0,1,1081,528a6.65,6.65,0,0,1,1.78,4.94V543.1Zm-.61-5.6v-1.7l-3.64.48a3.81,3.81,0,0,0-1.73.61,1.49,1.49,0,0,0-.61,1.28,1.58,1.58,0,0,0,.69,1.38,3.22,3.22,0,0,0,1.87.48,4.65,4.65,0,0,0,2.37-.61A2.06,2.06,0,0,0,1078.39,537.5Z"/><path class="cls-2" d="M1087.48,538.33v-8.19h-2.69v-3.49h1.7a1.51,1.51,0,0,0,.93-.21,1.33,1.33,0,0,0,.32-.91l.48-3.81h3.71v4.8h3.74v3.62H1092v7.42a2.33,2.33,0,0,0,.47,1.64,2.47,2.47,0,0,0,1.77.48H1096v3.48c-.4.07-.9.13-1.48.18s-1.18.08-1.78.08a5.49,5.49,0,0,1-4-1.25A5.23,5.23,0,0,1,1087.48,538.33Z"/><path class="cls-2" d="M1099,524.38v-4.16h4.74v4.16Zm.13,18.72V526.52h4.48V543.1Z"/><path class="cls-2" d="M1115,543.42a8.94,8.94,0,0,1-4.61-1.09,6.75,6.75,0,0,1-2.77-3,10.49,10.49,0,0,1-.91-4.47,10.26,10.26,0,0,1,.93-4.49,7,7,0,0,1,2.78-3,8.8,8.8,0,0,1,4.58-1.11,9,9,0,0,1,4.62,1.09,6.78,6.78,0,0,1,2.75,3,11.31,11.31,0,0,1,0,9,7,7,0,0,1-2.77,3.06A8.86,8.86,0,0,1,1115,543.42Zm0-3.9a3.26,3.26,0,0,0,2.77-1.25,5.68,5.68,0,0,0,.94-3.49,5.54,5.54,0,0,0-.94-3.44,3.73,3.73,0,0,0-5.54,0,5.65,5.65,0,0,0-.94,3.5,5.52,5.52,0,0,0,.94,3.44A3.26,3.26,0,0,0,1115,539.52Z"/><path class="cls-2" d="M1126.36,543.1V526.52h3.87l.32,2.08a5,5,0,0,1,1.91-1.72,6.21,6.21,0,0,1,3-.68,5.73,5.73,0,0,1,4.14,1.49,6,6,0,0,1,1.56,4.53V543.1h-4.48V533c0-1.88-.88-2.82-2.63-2.82a3.67,3.67,0,0,0-2.24.74,2.51,2.51,0,0,0-1,2.14v10Z"/><path class="cls-5" d="M1015.85,453.23a7.2,7.2,0,1,0,7.2,7.19A7.15,7.15,0,0,0,1015.85,453.23Zm49.39,8.57a7.2,7.2,0,1,0,7.2,7.2A7.16,7.16,0,0,0,1065.24,461.8Zm24.08-37.22a7.2,7.2,0,1,0,7.2,7.2A7.14,7.14,0,0,0,1089.32,424.58Z"/><path class="cls-6" d="M1015.85,453.23a7.2,7.2,0,1,0,7.2,7.19A7.15,7.15,0,0,0,1015.85,453.23Zm0,17.49a10.3,10.3,0,1,1,10.3-10.3A10.31,10.31,0,0,1,1015.85,470.72Z"/><path class="cls-6" d="M1065.24,461.8a7.2,7.2,0,1,0,7.2,7.2A7.16,7.16,0,0,0,1065.24,461.8Zm0,17.5a10.31,10.31,0,0,1-10.3-10.3,10.31,10.31,0,0,1,10.3-10.3,10.3,10.3,0,0,1,0,20.6Z"/><path class="cls-6" d="M1089.32,421.48a10.3,10.3,0,1,0,10.3,10.3A10.23,10.23,0,0,0,1089.32,421.48Zm0,17.49a7.2,7.2,0,1,1,7.2-7.19A7.2,7.2,0,0,1,1089.32,439Z"/><path class="cls-6" d="M1070.35,463a1.58,1.58,0,0,1-.9-.29,1.55,1.55,0,0,1-.37-2.16l15.31-21.65a1.55,1.55,0,0,1,2.53,1.79l-15.31,21.65A1.54,1.54,0,0,1,1070.35,463Z"/><path class="cls-6" d="M1060.43,463.11a1.53,1.53,0,0,1-1.18-.54L1048.53,450a1.55,1.55,0,1,1,2.36-2l10.72,12.6a1.55,1.55,0,0,1-1.18,2.55Z"/><path class="cls-6" d="M1022.38,455a1.52,1.52,0,0,1-1.15-.51,1.54,1.54,0,0,1,.11-2.19l6-5.46a1.55,1.55,0,0,1,2.08,2.3l-6,5.46A1.54,1.54,0,0,1,1022.38,455Z"/><path class="cls-6" d="M1039.42,455a15.38,15.38,0,1,1,15.37-15.38A15.4,15.4,0,0,1,1039.42,455Zm0-27.65a12.28,12.28,0,1,0,12.27,12.27A12.29,12.29,0,0,0,1039.42,427.39Z"/><path class="cls-7" d="M1039.79,442.72a1.55,1.55,0,0,1-1.55-1.55v-8.8a1.56,1.56,0,0,1,3.11,0v8.8A1.55,1.55,0,0,1,1039.79,442.72Z"/><path class="cls-7" d="M1039.79,449.13a1.55,1.55,0,0,1-1.55-1.55v-.75a1.56,1.56,0,0,1,3.11,0v.75A1.55,1.55,0,0,1,1039.79,449.13Z"/><rect class="cls-5" x="978" y="612" width="6" height="68.17"/><polygon class="cls-5" points="963.05 674.91 981 706 998.95 674.91 963.05 674.91"/><path class="cls-5" d="M1018.26,825.15c-3.07-5.77-8.18-14.51-17.71-17.93-4.14,4.47-11.23,7.43-19.3,7.43S966.1,811.7,962,807.22c-9.53,3.43-15.63,12.16-18.7,17.93"/><g id="user"><path class="cls-7" d="M981.26,882.89A11.72,11.72,0,1,1,993,871.18,11.73,11.73,0,0,1,981.26,882.89Zm0-17.43a5.72,5.72,0,1,0,5.71,5.72A5.73,5.73,0,0,0,981.26,865.46Z"/><path class="cls-6" d="M1040.85,914.15H921.67a9.39,9.39,0,0,1-9.35-8.78l-4.11-65.85a9.36,9.36,0,0,1,9.34-9.95H1045a9.37,9.37,0,0,1,9.35,9.95l-4.12,65.85A9.37,9.37,0,0,1,1040.85,914.15Zm-123.3-78.58a3.37,3.37,0,0,0-3.35,3.58L918.31,905a3.38,3.38,0,0,0,3.36,3.16h119.18a3.37,3.37,0,0,0,3.35-3.16l4.12-65.85a3.37,3.37,0,0,0-3.36-3.57Z"/><path class="cls-6" d="M981.25,805.2c-12.41,0-22.51-11-22.51-24.53s10.1-24.52,22.51-24.52,22.52,11,22.52,24.52S993.67,805.2,981.25,805.2Zm0-43.05c-9.1,0-16.51,8.31-16.51,18.52s7.41,18.53,16.51,18.53,16.52-8.31,16.52-18.53S990.36,762.15,981.25,762.15Z"/><path class="cls-6" d="M944,825.27a3,3,0,0,1-1.41-.35,3,3,0,0,1-1.24-4.06c4.11-7.71,10.72-13.25,19.65-16.46a3,3,0,0,1,3.22.78c3.74,4.05,10.12,6.47,17.08,6.47s13.36-2.42,17.09-6.47a3,3,0,0,1,3.22-.79c8.93,3.21,15.54,8.75,19.66,16.47a3,3,0,0,1-5.3,2.82,28.37,28.37,0,0,0-14.66-13c-4.91,4.37-12.23,6.94-20,6.94s-15.08-2.57-20-6.94a28.39,28.39,0,0,0-14.65,13A3,3,0,0,1,944,825.27Z"/></g></svg>